<?xml version="1.0" encoding="utf-8"?>
<!-- Generator: Adobe Illustrator 22.0.0, SVG Export Plug-In . SVG Version: 6.00 Build 0)  -->
<svg version="1.1" id="Capa_1" xmlns="http://www.w3.org/2000/svg" xmlns:xlink="http://www.w3.org/1999/xlink" x="0px" y="0px"
	 viewBox="0 0 635.9 275" style="enable-background:new 0 0 635.9 275;" xml:space="preserve">
<style type="text/css">
	.st0{fill:#63A7D4;}
	.st1{fill:#FFFFFF;}
	.st2{fill:#272424;}
	.st3{fill:#E6BE39;}
	.st4{fill:#73A14F;}
	.st5{fill:#C4462E;}
	.st6{fill:#E4B680;}
	.st7{fill:#09070A;}
</style>
<g>
	<path class="st0" d="M84.1,133.5H68.8c-3.4,0-5.2-1.4-6.2-2.6c-0.8-1-1.4-2.3-1.6-3.8c0-0.1,0-0.2,0-0.3c-0.2-1.4-0.1-3,0.2-4.6
		c2-10.1,6-16.8,9.4-21c-0.4-0.1-0.7-0.3-1.1-0.5c-2.1-1.2-3.2-3.7-2.7-6.4c0.6-3.3,3.7-6.7,4.3-7.3c5.3-6.2,13.2-6.5,14.1-6.5
		c1.2-0.1,11.5-0.5,17.1,10.3c6.7,13,8.3,23.7,9.5,32.3l0.1,0.4c0.2,1.5,0.1,2.8-0.2,3.8c0,0.1-0.1,0.2-0.1,0.3
		c-0.4,1.2-1,2.1-1.6,2.7c-1.4,1.5-3.4,2.5-6.1,2.9c-1.1,0.2-2.1,0.2-2.7,0.2c-0.3,0-0.5,0-0.6,0h-4.4h-0.1h-0.1h-7.4v21.7h68.7
		c0-12.7-1.9-25.1-5.6-36.7c-3.6-11.2-8.7-21.3-15.3-29.9c-6.5-8.6-14.1-15.4-22.6-20.1c-8.7-4.9-18-7.3-27.5-7.3
		c-9.5,0-18.8,2.5-27.5,7.3c-8.4,4.7-16,11.5-22.6,20.1c-6.6,8.6-11.7,18.7-15.3,29.9c-3.7,11.6-5.6,24-5.6,36.7h68.6V133.5z"/>
	<path class="st1" d="M15.5,155.2c0,9.7,1.1,19.1,3.2,28.2c30.7-3.5,49-7.1,54.5-10.7c3.8-2.7,6.9-4.3,10.9-4.1v-13.3H15.5z"/>
	<path class="st1" d="M88.8,169c2.8,0.5,4.8,1.3,7,2.4c0.2,0,0.5,0,0.7,0c3.9-0.2,7.3,1,11.9,2.7c1.3,0.5,2.7,1,4.3,1.5
		c0.7,0.2,22.8,7.1,41.4,8.2c2.2-9.2,3.3-18.8,3.3-28.6H88.8V169z"/>
	<polyline class="st2" points="81.9,49.3 81.9,49.2 81.9,49.3 	"/>
	<polyline class="st2" points="67.6,51.4 67.6,51.4 67.6,51.4 67.6,51.4 	"/>
	<path class="st1" d="M116.7,199c-0.3,0.6-0.7,1.2-1.3,1.8c-1.2,1.1-2.7,1.7-4.6,1.8c-0.2,0.5-0.6,1.2-1.1,1.8c-1,1.2-2.9,2.5-6,2.3
		c-0.3,0.5-0.7,1.1-1.2,1.6c-1.5,1.6-3.6,2.2-5.8,1.8c-0.5,0.4-1.3,1-2.4,1.4c-1.3,0.5-3.2,0.9-5.5,0.4v18.2c0,1.3-1,2.3-2.3,2.3
		c-1.3,0-2.3-1-2.3-2.3v-17.4c-0.9,0.3-1.9,0.6-3,0.6c-0.4,0-0.8,0-1.2-0.1c-1.3-0.3-2.4-0.9-3.3-2c-1.5,0.2-4.2,0.4-6.1-0.9
		c-0.8-0.5-1.4-1.3-1.7-2.2c-0.6-0.1-1.4-0.2-2.2-0.5c-2-0.6-3.4-1.8-4-3.4c-0.5,0-1-0.1-1.6-0.1c-1.7-0.3-3.8-1-4.7-2.9
		c-0.2-0.4-0.3-0.8-0.4-1.3c-9.8,5-21,10.1-26,12.3c1.9,3.3,4,6.5,6.3,9.5c6.5,8.6,14.1,15.4,22.6,20.1c3.9,2.2,8,3.9,12.1,5.1
		c0.4-0.8,1-1.4,1.8-2c3.9-2.6,11.4-0.7,13.5-0.1c2.1-0.6,9.6-2.5,13.5,0.1c0.8,0.5,1.4,1.2,1.8,2c4.1-1.2,8.2-2.9,12.1-5.1
		c8.4-4.7,16-11.5,22.6-20.1c2.1-2.8,4.1-5.8,6-8.9C136.9,210.6,124.6,205.1,116.7,199"/>
	<path class="st0" d="M92.8,261.3c0.1-0.5,0.2-1,0.2-1.6c0-0.5-0.1-1-0.2-1.4c2.3-0.5,6.1-1.6,8.1-4.1c1.2-1.5,1.7-3.2,1.5-5.2
		c-0.2-1.7-1-3.1-2.4-4c-3.9-2.6-11.4-0.7-13.5-0.1c-2.1-0.6-9.6-2.5-13.5,0.1c-1.4,0.9-2.2,2.3-2.4,4c-0.2,2,0.3,3.7,1.5,5.2
		c2.1,2.6,5.9,3.7,8.2,4.1c-0.1,0.5-0.2,0.9-0.2,1.4c0,0.5,0.1,1,0.2,1.5c-1.7,1.6-7.1,6.4-14.9,7.3v0c0.2,0.4,0.9,1.5,2.3,2.7
		c7-1.3,11.9-5.1,14.2-7.2c0.2,0.2,0.5,0.5,0.7,0.7c-0.5,1.9-2.6,6.9-11.1,9c1.4,0.6,3.1,1.2,5.1,1.5c5.9-2.7,8-6.8,8.8-9.1
		c0.4,0.1,0.8,0.1,1.3,0.1c0.4,0,0.8,0,1.2-0.1c0.7,2.4,2.9,6.5,8.8,9.1c2-0.3,3.7-0.8,5.1-1.5c-8.5-2.1-10.6-7-11.1-9
		c0.3-0.2,0.5-0.4,0.7-0.7c2.3,2.1,7.2,5.9,14.1,7.2c1.4-1.2,2.1-2.3,2.3-2.7C99.9,267.7,94.5,263,92.8,261.3"/>
	<path class="st1" d="M98.3,247.6c0.6,0.4,1,1,1.1,1.8c0.1,1.1-0.1,2.1-0.8,2.9c-0.9,1.1-2.4,1.9-3.9,2.4c0.7-1.5,0.8-3.1,0.3-4.6
		c-0.5-1.5-1.4-2.5-2.4-3.2C94.8,246.6,97.1,246.7,98.3,247.6"/>
	<path class="st1" d="M80.8,251.2c1.1-3.1,5.4-3.1,5.6-3.1h0c0,0,1.2,0,2.5,0.4c1.6,0.5,2.7,1.4,3.2,2.7c0.5,1.4-0.5,2.8-1.3,3.7
		c-1.1-1-2.6-1.6-4.3-1.6c-1.7,0-3.2,0.6-4.3,1.7C81.3,254,80.3,252.6,80.8,251.2"/>
	<path class="st1" d="M78.3,254.7c-1.5-0.5-3-1.3-3.9-2.4c-0.7-0.8-1-1.8-0.8-2.9c0.1-0.8,0.4-1.4,1.1-1.8c0.9-0.6,2.3-0.8,3.9-0.8
		c0.6,0,1.3,0,2,0.1c-1,0.7-1.9,1.8-2.4,3.2C77.4,251.8,77.7,253.4,78.3,254.7"/>
	<path class="st1" d="M83.1,259.8c0-1.9,1.5-3.4,3.4-3.4c1.9,0,3.4,1.5,3.4,3.4c0,1.9-1.5,3.4-3.4,3.4
		C84.6,263.2,83.1,261.6,83.1,259.8"/>
	<path class="st1" d="M105.4,271.3c-6.9-1.3-11.9-5.1-14.1-7.2c-0.2,0.2-0.5,0.5-0.7,0.7c0.5,2,2.6,6.8,11.1,9
		C103.2,273,104.4,272.2,105.4,271.3"/>
	<path class="st1" d="M81.7,264.1c-2.2,2.1-7.2,5.9-14.2,7.2c0.9,0.8,2.2,1.7,3.8,2.5c8.5-2.1,10.6-7.1,11.1-9
		C82.2,264.6,81.9,264.3,81.7,264.1"/>
	<path class="st2" d="M172.4,173.5c0.1-0.5-0.1-1-0.5-1.3c-0.3-0.2-0.7-0.4-1-0.3c0.3-0.6,0.6-1.3,0.8-1.9c1.1-2.9,1.6-6.3,1.7-10
		c0-0.5-0.2-1-0.7-1.2c-0.3-0.2-0.7-0.3-1-0.2c0.2-0.6,0.4-1.2,0.6-1.9c0.8-3,1-6.4,0.7-10.1c0-0.5-0.3-0.9-0.8-1.2
		c-0.3-0.2-0.7-0.2-1-0.1c0.2-0.7,0.3-1.5,0.5-2.2c0.5-3.1,0.4-6.5-0.3-10.1c-0.1-0.5-0.4-0.9-0.9-1.1c-0.2-0.1-0.5-0.1-0.8-0.1
		c0.1-0.5,0.2-1,0.2-1.6c0.3-3.1,0.1-6.5-0.8-10.1c-0.1-0.5-0.5-0.9-0.9-1c-0.5-0.2-1-0.1-1.4,0.2l0,0c0.1-0.8,0.1-1.6,0.1-2.5
		c-0.1-3.1-0.8-6.4-2.2-9.9c-0.2-0.5-0.6-0.8-1.1-0.9c-0.4-0.1-0.8,0-1.1,0.2c0-0.7-0.1-1.5-0.2-2.3c-0.4-3.1-1.5-6.3-3.2-9.6
		c-0.2-0.4-0.7-0.7-1.2-0.8c-0.4,0-0.8,0.1-1.1,0.3c-0.1-0.7-0.3-1.4-0.4-2.1c-0.8-3-2.2-6.1-4.3-9.2c-0.3-0.4-0.8-0.7-1.2-0.7
		c-0.5,0-0.9,0.2-1.2,0.6c-0.2-0.8-0.5-1.6-0.9-2.4c-1.3-2.8-3.2-5.7-5.7-8.4c-0.3-0.4-0.9-0.5-1.4-0.4c-0.4,0.1-0.7,0.3-0.9,0.6
		c-0.4-0.8-0.8-1.6-1.3-2.4c-1.7-2.6-4-5.1-6.9-7.3c-0.4-0.3-0.9-0.4-1.4-0.2c-0.4,0.1-0.7,0.4-0.9,0.8c-1.9-2.6-4.6-4.5-8.1-5.7
		c0.6,0.1,1.2,0.1,1.9,0.1c4.1,0.2,7-0.6,7.1-0.7c0.9-0.3,1.4-1.1,1.3-2c-0.1-0.9-0.9-1.6-1.8-1.6c-4.5-0.2-6.1-1.1-8.2-2.3
		c-0.4-0.2-0.8-0.4-1.3-0.7l10.4-1.6c0.9-0.1,1.6-0.9,1.6-1.8c0-0.9-0.7-1.7-1.6-1.8l-10.4-1.5c1.2-0.3,2.6-0.7,4-1.2
		c3.9-1.3,6.2-3.2,6.3-3.3c0.7-0.6,0.9-1.6,0.4-2.4c-0.4-0.8-1.4-1.1-2.3-0.8c-4.2,1.5-6.1,1.3-8.5,1.1c-0.5,0-0.9-0.1-1.4-0.1
		l9-5.4c0.8-0.5,1.1-1.5,0.8-2.3c-0.4-0.9-1.3-1.3-2.2-1.1l-10.2,2.6c1-0.8,2.1-1.7,3.3-2.7c3.1-2.7,4.5-5.4,4.5-5.5
		c0.4-0.8,0.2-1.8-0.5-2.3c-0.7-0.6-1.7-0.5-2.4,0.1c-3.3,3-5.1,3.5-7.4,4.2c-0.4,0.1-0.9,0.3-1.3,0.4l6.3-8.4
		c0.6-0.7,0.5-1.8-0.2-2.4c-0.7-0.7-1.7-0.7-2.4-0.2l-8.4,6.3c0.6-1.1,1.3-2.4,2-3.8c1.8-3.7,2.1-6.7,2.1-6.8c0.1-0.9-0.5-1.7-1.4-2
		c-0.9-0.2-1.8,0.2-2.2,1c-1.9,4-3.4,5.2-5.2,6.8c-0.3,0.3-0.7,0.6-1.1,0.9l2.6-10.2c0.2-0.9-0.2-1.8-1.1-2.2
		c-0.9-0.4-1.8,0-2.3,0.8l-5.4,9.1c0.2-1.3,0.3-2.7,0.4-4.3c0.2-4.1-0.6-6.9-0.7-7.1c-0.3-0.9-1.1-1.4-2-1.3
		c-0.9,0.1-1.6,0.9-1.6,1.8c-0.2,4.5-1.1,6.1-2.3,8.3c-0.2,0.4-0.4,0.8-0.6,1.2L88.3,1.3c-0.1-0.9-0.9-1.6-1.8-1.6h0
		c-0.9,0-1.7,0.7-1.8,1.6l-1.5,10.3c-0.3-1.2-0.7-2.6-1.2-4c-1.3-3.9-3.2-6.2-3.3-6.3c-0.6-0.7-1.6-0.9-2.4-0.4
		c-0.8,0.4-1.1,1.4-0.8,2.2c1.5,4.2,1.3,6.1,1,8.5c0,0.5-0.1,0.9-0.1,1.4L70.9,4c-0.5-0.8-1.5-1.1-2.3-0.8c-0.9,0.4-1.3,1.3-1.1,2.2
		l2.6,10.1c-0.8-1-1.7-2.1-2.7-3.2c-2.7-3.1-5.4-4.5-5.5-4.5c-0.8-0.4-1.8-0.2-2.3,0.5c-0.6,0.7-0.5,1.7,0.1,2.4
		c3,3.3,3.5,5.1,4.2,7.4c0.1,0.4,0.3,0.9,0.4,1.4l-8.5-6.3c-0.7-0.5-1.8-0.5-2.4,0.2c-0.7,0.7-0.7,1.7-0.2,2.4l6.3,8.4
		c-1.1-0.6-2.4-1.3-3.7-2c-3.7-1.8-6.7-2.1-6.8-2.1c-0.9-0.1-1.7,0.5-2,1.4c-0.2,0.9,0.2,1.8,1,2.2c4,1.9,5.2,3.4,6.8,5.3
		c0.3,0.4,0.6,0.7,0.9,1.1l-10.2-2.6c-0.9-0.2-1.8,0.2-2.2,1.1c-0.4,0.9,0,1.8,0.8,2.3l9.1,5.4c-1.2-0.2-2.7-0.3-4.2-0.4
		c-4.1-0.2-6.9,0.6-7.1,0.7c-0.9,0.3-1.4,1.1-1.3,2c0.1,0.9,0.9,1.6,1.8,1.6c4.5,0.2,6.1,1.1,8.2,2.3c0.4,0.2,0.8,0.4,1.2,0.6
		l-10.4,1.5c-0.9,0.1-1.6,0.9-1.6,1.8c0,0.9,0.7,1.7,1.6,1.8l10.5,1.5c-1.2,0.3-2.6,0.7-4.1,1.3c-3.9,1.3-6.2,3.2-6.3,3.3
		C40.7,55,40.6,56,41,56.8c0.5,0.8,1.4,1.1,2.3,0.8c2.4-0.9,4.1-1.2,5.5-1.2c-2.2,2-3.9,3.5-4.7,4.5c-0.4,0.5-0.8,1.1-1.2,1.6
		c-0.2-0.3-0.5-0.5-0.8-0.6c-0.5-0.2-1-0.1-1.4,0.2c-3,2.3-5.3,4.8-7,7.4c-0.5,0.8-0.9,1.5-1.3,2.3c-0.2-0.3-0.6-0.6-1-0.6
		c-0.5-0.1-1,0.1-1.3,0.4c-2.6,2.7-4.5,5.5-5.7,8.4c-0.3,0.8-0.6,1.5-0.9,2.3c-0.3-0.2-0.6-0.4-0.9-0.4c-0.5,0-1,0.2-1.3,0.6
		c-2.2,3-3.8,6-4.7,9c-0.2,0.8-0.4,1.6-0.6,2.4c-0.3-0.4-0.8-0.5-1.2-0.5c-0.5,0.1-0.9,0.3-1.2,0.8c-1.7,3.3-2.8,6.5-3.3,9.6
		c-0.1,0.8-0.2,1.5-0.2,2.3c-0.4-0.3-0.8-0.4-1.3-0.3c-0.5,0.1-0.9,0.5-1.1,0.9c-1.3,3.5-2,6.8-2,9.9c0,0.8,0,1.5,0.1,2.2
		c-0.4-0.2-0.8-0.3-1.2-0.1c-0.5,0.2-0.8,0.6-0.9,1c-0.9,3.6-1.1,7-0.8,10.1c0.1,0.6,0.1,1.2,0.3,1.7c-0.2,0-0.4,0-0.6,0.1
		c-0.5,0.2-0.8,0.6-0.9,1.1c-0.7,3.6-0.8,7.1-0.3,10.1c0.1,0.8,0.3,1.6,0.5,2.3c-0.2,0-0.4,0.1-0.6,0.1c-0.4,0.2-0.8,0.6-0.8,1.1
		c-0.5,3.7-0.4,7.1,0.3,10.1c0.1,0.7,0.3,1.3,0.5,1.9c-0.3,0-0.7,0-1,0.2c-0.4,0.3-0.7,0.7-0.7,1.2c-0.1,3.7,0.4,7.1,1.4,10
		c0.3,0.9,0.6,1.7,1,2.5c-0.1,0-0.2,0-0.2-0.1c-0.5-0.1-1,0-1.4,0.3c-0.4,0.3-0.5,0.8-0.5,1.3c0.6,3.7,1.6,6.9,3.1,9.6
		c0.3,0.5,0.6,1,0.9,1.5c-0.3,0.1-0.5,0.2-0.7,0.4c-0.3,0.4-0.5,0.9-0.4,1.4c0.9,3.6,2.1,6.8,3.8,9.4c0.4,0.6,0.8,1.2,1.3,1.8
		c-0.4,0-0.8,0.3-1,0.6c-0.3,0.4-0.4,0.9-0.2,1.4c1.3,3.5,2.9,6.5,4.9,8.9c0.4,0.5,0.9,1,1.4,1.5c-0.4,0.1-0.7,0.3-0.9,0.7
		c-0.3,0.4-0.3,1,0,1.4c1.7,3.3,3.7,6.1,5.9,8.3c0.5,0.5,1,0.9,1.5,1.3c-0.3,0.1-0.6,0.4-0.8,0.7c-0.2,0.5-0.2,1,0.1,1.4
		c2,3.1,4.3,5.7,6.8,7.6c0.7,0.6,1.5,1.1,2.3,1.6c-0.2,0.1-0.3,0.1-0.3,0.1c-0.5,0.2-0.8,0.6-0.9,1c-0.1,0.5,0,1,0.4,1.4
		c2.6,2.7,5.2,4.8,7.9,6.3c2.2,1.2,4.3,2,6.5,2.4c1.9,0.3,3.7,0.4,5.2,0.1c0.1,0,0.2,0,0.3-0.1c4.6,3.2,9.4,5.9,14.4,8
		c4.2,1.8,8.5,3.1,12.8,4c0.9,0.2,1.8,0.4,2.6,0.5c-1.8-0.7-3.7-1.7-4.9-3.2c-0.2-0.3-0.4-0.5-0.6-0.8c-3-0.8-5.9-1.8-8.8-3
		c-4.8-2-9.4-4.6-13.8-7.7c0-0.1,0-0.1,0-0.2c0.1-1.5-0.1-3-0.5-4.5c3.2,2.6,6,4.6,9.1,6.4c4.2,2.4,8.6,4.2,13,5.4
		c0-0.3,0-0.5,0-0.8c0.1-0.8,0.3-1.4,0.6-2.1c-4.1-1.2-8.2-2.9-12.1-5.1c-8.4-4.7-16-11.5-22.6-20.1c-2.3-3-4.4-6.2-6.3-9.5
		c5-2.2,16.2-7.3,26-12.3c0.1,0.4,0.2,0.9,0.4,1.3c0.8,1.9,3,2.7,4.7,2.9c0.6,0.1,1.1,0.1,1.6,0.1c0.6,1.6,2,2.7,4,3.4
		c0.8,0.3,1.6,0.4,2.2,0.5c0.3,0.9,0.9,1.6,1.7,2.2c1.9,1.3,4.6,1.1,6.1,0.9c0.9,1.1,2,1.7,3.3,2c0.4,0.1,0.8,0.1,1.2,0.1
		c1,0,2.1-0.2,3-0.6v17.4c0,1.3,1,2.3,2.3,2.3c1.3,0,2.3-1,2.3-2.3V212c2.3,0.5,4.2,0.1,5.5-0.4c1-0.4,1.8-0.9,2.4-1.4
		c2.3,0.4,4.3-0.2,5.8-1.8c0.5-0.5,0.9-1.1,1.2-1.6c3.1,0.1,5-1.2,6-2.3c0.5-0.6,0.9-1.3,1.1-1.8c1.9-0.1,3.5-0.7,4.6-1.8
		c0.6-0.6,1-1.2,1.3-1.8c7.9,6.1,20.2,11.5,25.8,13.8c-1.8,3.1-3.8,6.1-6,8.9c-6.5,8.6-14.1,15.4-22.6,20.1c-3.9,2.2-8,3.9-12.1,5.1
		c0.3,0.6,0.5,1.3,0.6,2.1c0,0.3,0,0.5,0,0.8c4.5-1.3,8.8-3.1,13-5.4c3.3-1.8,6.4-4.2,9.2-6.4c-0.4,1.5-0.6,3-0.5,4.5
		c0,0.1,0,0.1,0,0.2c-1.4,1-4.9,3.6-10.1,6.2c-3.9,1.9-8,3.4-12.1,4.5c-0.2,0-0.3,0.1-0.5,0.1c-0.2,0.2-0.3,0.5-0.5,0.7
		c-1.3,1.6-3.2,2.6-5,3.2c2.3-0.4,4.5-0.8,6.8-1.4c4.3-1.1,8.5-2.7,12.6-4.8c5.5-2.7,9.2-5.4,10.6-6.5c0.1,0,0.2,0.1,0.2,0.1
		c1.5,0.3,3.4,0.3,5.3-0.1c2.1-0.4,4.3-1.2,6.5-2.4c2.7-1.5,5.3-3.6,7.9-6.3c0.3-0.4,0.5-0.9,0.4-1.4c-0.1-0.5-0.5-0.9-0.9-1
		c0,0-0.1,0-0.2-0.1c0.8-0.5,1.6-1,2.3-1.6c2.5-1.9,4.7-4.5,6.8-7.6c0.3-0.4,0.3-0.9,0.1-1.4c-0.2-0.3-0.4-0.6-0.8-0.7
		c0.5-0.4,1-0.8,1.5-1.3c2.3-2.2,4.2-4.9,5.9-8.3c0.2-0.4,0.2-1,0-1.4c-0.2-0.4-0.6-0.7-1.1-0.7c0.5-0.5,1-1.1,1.5-1.6
		c2-2.4,3.6-5.4,4.9-8.9c0.2-0.4,0.1-0.9-0.2-1.3c-0.3-0.4-0.7-0.6-1.2-0.6h0c0.4-0.5,0.8-1.1,1.2-1.7c1.7-2.6,3.1-5.7,4-9.3
		c0.1-0.5,0-1-0.3-1.4c-0.3-0.3-0.7-0.5-1.2-0.5c0.4-0.6,0.8-1.3,1.1-2C171,180.5,171.9,177.2,172.4,173.5 M170.6,162
		C170.6,162,170.7,162,170.6,162c-0.1,2.6-0.6,4.9-1.4,7c-0.7,2.1-1.8,3.9-3.1,5.4c-1.5,1.8-3.1,2.7-3.7,3c0,0,0,0,0,0
		c0,0,0,0-0.1,0c-2-2.8-3-6.2-3-10.1c0-1.3,0.2-2.5,0.4-3.8c0,0,0-0.1,0.1-0.1c0,0,0.1,0,0.1,0c1.8,2.2,2.8,5.2,2.8,5.2
		c0.1,0.4,0.5,0.7,1,0.7c0.4,0,0.9-0.2,1.1-0.6C166.5,165.3,168.9,163.1,170.6,162C170.6,161.9,170.6,161.9,170.6,162 M170.3,148.7
		C170.4,148.7,170.4,148.7,170.3,148.7c0.1,0,0.1,0,0.1,0.1c0.1,2.5-0.2,4.9-0.7,7c-0.5,2.1-1.4,4-2.5,5.7c-1.3,1.9-2.8,3-3.3,3.4
		c0,0,0,0,0,0c0,0,0,0-0.1,0c-3.6-4.1-3.9-10.1-3.8-13.3c0,0,0-0.1,0.1-0.1c0,0,0.1,0,0.1,0c1.9,2.1,3.2,4.7,3.2,4.7
		c0.2,0.4,0.6,0.6,1,0.6c0.4,0,0.8-0.3,1-0.7C166.7,152.4,168.8,150.1,170.3,148.7 M168.9,135.3C168.9,135.3,169,135.3,168.9,135.3
		c0.1,0,0.1,0,0.1,0c0.3,2.5,0.3,4.9,0,7c-0.3,2.2-1,4.2-1.9,5.9c-1.2,2.1-2.5,3.3-3.1,3.7c0,0,0,0,0,0c0,0,0,0,0,0
		c-3.5-2.9-4.6-9.3-4.9-12.8c0,0,0-0.1,0-0.1c0,0,0.1,0,0.1,0c2.1,1.9,3.6,4.2,3.6,4.3c0.2,0.4,0.7,0.6,1.1,0.5
		c0.4-0.1,0.8-0.4,0.9-0.8C165.6,139.3,167.5,136.8,168.9,135.3 M166.8,122.6C166.8,122.6,166.8,122.6,166.8,122.6
		c0.1,0,0.1,0,0.1,0c0.4,2.5,0.5,4.9,0.3,7c-0.2,2.2-0.8,4.2-1.7,6c-1,2.1-2.3,3.4-2.8,3.8c0,0,0,0-0.1,0c0,0,0,0,0,0
		c-3-2.5-4.4-6.2-5.1-8.9c-0.3-1.2-0.5-2.5-0.6-3.7c0,0,0-0.1,0-0.1c0,0,0.1,0,0.1,0c2.2,1.8,3.9,4.2,3.9,4.2
		c0.3,0.4,0.7,0.5,1.1,0.5c0.4-0.1,0.8-0.4,0.9-0.9C163.7,126.7,165.5,124.1,166.8,122.6 M65,123.4c0-0.2,0.1-0.3,0.1-0.5
		c1.7-8.8,5.2-14.8,7.8-18.2c1.9-2.6,3.7-4.2,4.6-5c0.3-0.2,0.6-0.4,0.8-0.7c0.8-0.7,1-2,0.3-2.9c-0.7-0.9-1.9-1.1-2.8-0.4
		c-0.1,0.1-0.4,0.3-0.9,0.7c-1.9,1.4-3.1,0.9-3.4,0.8c-0.6-0.4-0.9-1.2-0.7-2.2c0.3-1.9,2.5-4.4,3.3-5.2c0,0,0.1-0.1,0.1-0.1
		c4.3-5.1,11.2-5.2,11.2-5.2c0.1,0,0.1,0,0.2,0c0,0,2.2-0.2,4.8,0.7c3.7,1.2,6.5,3.7,8.4,7.5c2.7,5.3,4.8,10.6,6.3,16.2
		c-3.8-1.4-6.9-3.8-6.9-3.9c-0.9-0.7-2.2-0.6-2.9,0.3c-0.4,0.4-0.5,1-0.5,1.5c0.1,0.6,0.3,1.1,0.7,1.4c0.2,0.2,4.9,4,10.7,5.3
		c0.4,1.9,0.8,3.9,1.1,6.3c-1.8-0.9-4-1.5-5.8-2c-1.2-0.3-2.4-0.6-3.2-1c-3.9-1.6-7.3-4.2-7.3-4.2c-0.9-0.7-2.2-0.6-2.9,0.3
		c-0.7,0.9-0.6,2.2,0.3,2.9c0.2,0.1,3.8,3,8.3,4.8c1.1,0.5,2.4,0.8,3.7,1.1c5,1.3,7.2,2.3,7.3,4.8c-0.1,0.4-0.4,0.7-0.6,1
		c-1.6,1.7-5.1,1.9-6.3,1.8c0,0-0.1,0-0.1,0h-4.7c-0.9,0-5.7-0.2-9.8-2.9C75.7,119.8,70.9,120.9,65,123.4 M83,129.5H68.8
		c-1.5,0-2.5-0.4-3.1-1.1c-0.1-0.2-0.2-0.3-0.3-0.5C71.3,125.1,74.5,124.2,83,129.5 M88.8,155.2v-21.7h7.4h0.1h0.1h4.4
		c0.1,0,0.3,0,0.6,0c0.6,0,1.6,0,2.7-0.2c2.6-0.4,4.7-1.4,6.1-2.9c0.6-0.6,1.2-1.5,1.6-2.7c0-0.1,0.1-0.2,0.1-0.3
		c0.3-1,0.4-2.3,0.2-3.8l-0.1-0.4c-1.3-8.6-2.9-19.3-9.5-32.3c-5.6-10.9-16-10.4-17.1-10.3c-1,0-8.8,0.4-14.1,6.5
		c-0.6,0.6-3.7,4-4.3,7.3c-0.5,2.7,0.6,5.2,2.7,6.4c0.3,0.2,0.7,0.3,1.1,0.5c-3.3,4.1-7.4,10.9-9.4,21c-0.3,1.7-0.4,3.2-0.2,4.6
		c0,0.1,0,0.2,0,0.3c0.2,1.5,0.8,2.8,1.6,3.8c1,1.2,2.8,2.6,6.2,2.6h15.4v21.7v13.3c-4-0.1-7.1,1.4-10.9,4.1
		c-5.4,3.6-23.8,7.3-54.5,10.7c-2.2-9.1-3.2-18.5-3.2-28.2c0-12.7,1.9-25.1,5.6-36.7c3.6-11.2,8.7-21.3,15.3-29.9
		C42.9,80,50.5,73.3,59,68.6c8.7-4.9,18-7.3,27.5-7.3c9.5,0,18.8,2.5,27.5,7.3c8.4,4.7,16,11.5,22.6,20.1
		c6.6,8.6,11.7,18.7,15.3,29.9c3.7,11.6,5.6,24,5.6,36.7c0,9.8-1.1,19.4-3.3,28.6c-18.7-1.1-40.8-8-41.4-8.2c-1.6-0.5-3-1.1-4.3-1.5
		c-4.6-1.7-8-2.9-11.9-2.7c-0.2,0-0.5,0-0.7,0c-2.3-1.1-4.3-1.9-7-2.4V155.2z M117.8,56.9c-1.1,0.4-2.9,1.1-4.9,1.4
		c-1.3,0.2-2.5,0.4-3.6,0.4c-2.7,0-5-0.7-6.9-2c0,0,0,0,0-0.1s0,0,0-0.1c0.9-0.5,2.3-1.2,4-1.6c1.9-0.5,3.9-0.5,5.8-0.2
		c1.8,0.3,3.7,1,5.5,2C117.8,56.8,117.8,56.8,117.8,56.9C117.8,56.9,117.8,56.9,117.8,56.9 M120.5,64.5
		C120.5,64.5,120.5,64.6,120.5,64.5c0,0.1,0,0.1,0,0.1c-0.8,0.3-2,0.6-3.5,0.7c-0.2,0-0.4,0-0.5,0c-3.2,0-6.3-1.2-9.3-3.5
		c0,0,0,0,0-0.1c0,0,0-0.1,0.1-0.1c1.3-0.4,2.7-0.7,4-0.8C114.9,60.7,118,61.9,120.5,64.5 M105.8,52.7c-1.3,0.6-3.4,1.4-6.7,1.8
		c-0.5,0.1-0.8,0.4-0.9,0.8c-0.1,0.4,0.1,0.9,0.4,1.2c0,0,2.5,1.8,4.4,4.1c0,0,0,0.1,0,0.1c0,0,0,0-0.1,0h0c-3.1-0.1-8.8-1-12.9-5.9
		c0,0,0-0.1,0-0.1c0.6-0.6,1.8-1.5,3.5-2.2c3.3-1.2,7.5-1.2,12.2,0.1C105.8,52.6,105.8,52.6,105.8,52.7
		C105.8,52.7,105.8,52.7,105.8,52.7 M92.1,50.5c-1.1,0.8-3.1,2.1-6.3,3c-0.5,0.1-0.8,0.5-0.8,1c0,0.5,0.3,0.9,0.7,1.1
		c0,0,2.7,1,5,2.9c0,0,0,0.1,0,0.1c0,0,0,0.1-0.1,0.1c-0.8,0.1-1.7,0.1-2.7,0.1c-3.3,0-7.6-0.6-11-3.1c0,0,0-0.1,0-0.1
		c0.5-0.7,1.4-1.8,3-2.8c3-1.9,7.2-2.7,12.1-2.4C92,50.4,92.1,50.4,92.1,50.5C92.1,50.4,92.1,50.5,92.1,50.5 M78,50.7
		c-0.8,1.1-2.4,2.7-5.7,4.3c-0.4,0.2-0.7,0.7-0.6,1.1c0.1,0.5,0.4,0.8,0.9,0.9c0,0,2.9,0.5,5.5,1.8c0,0,0,0,0,0.1c0,0,0,0.1-0.1,0.1
		c-1.2,0.4-2.4,0.7-3.6,0.9c-1.1,0.2-2.4,0.3-3.8,0.3c-2.1,0-4.4-0.3-6.6-1.3c0,0-0.1-0.1,0-0.1c0.3-0.8,1-2.1,2.3-3.4
		c2.5-2.5,6.5-4.2,11.6-4.9C77.9,50.6,78,50.6,78,50.7C78,50.7,78,50.7,78,50.7 M59.8,59.4c-0.3,0.3-0.5,0.8-0.3,1.2
		c0.2,0.4,0.6,0.7,1,0.7h0c0,0,1.2,0,2.8,0.2c1.1,0.1,2.1,0.3,3,0.6c0,0,0.1,0,0.1,0.1c0,0,0,0.1,0,0.1c-1.1,0.6-2.3,1.1-3.5,1.5
		c-2.6,0.9-4.8,1.2-6.6,1.2c-1.6,0-2.9-0.2-3.9-0.5c0,0-0.1,0-0.1-0.1c0.5-2.3,2.6-8.1,12.4-11.4c0,0,0.1,0,0.1,0c0,0,0,0.1,0,0.1
		C64.1,54.5,62.7,56.8,59.8,59.4 M160,118.1c0.3-3.9,1.6-6.7,2.7-8.4c0,0,0,0,0.1,0c0,0,0.1,0,0.1,0.1c0.8,2.4,1.2,4.8,1.3,6.9
		c0.1,2.2-0.2,4.3-0.8,6.1c-0.7,2.2-1.8,3.7-2.3,4.2c0,0,0,0-0.1,0c0,0,0,0,0,0c-2.8-1.7-4.9-4.5-6.4-8.2c-0.4-1.1-0.8-2.3-1.1-3.6
		c0,0,0-0.1,0-0.1c0,0,0.1,0,0.1,0c2.5,1.5,4.5,3.6,4.5,3.7c0.3,0.3,0.8,0.4,1.2,0.3C159.7,118.9,160,118.5,160,118.1 M155.7,105.9
		c-0.2-3.9,0.9-6.8,1.8-8.6c0,0,0,0,0.1,0c0,0,0.1,0,0.1,0c1,2.3,1.7,4.6,2,6.8c0.3,2.2,0.2,4.3-0.2,6.2c-0.5,2.3-1.4,3.8-1.8,4.4
		c0,0,0,0-0.1,0c0,0,0,0,0,0c-2.9-1.4-5.4-4-7.2-7.5c-0.6-1.1-1.1-2.2-1.5-3.4c0,0,0-0.1,0-0.1c0,0,0.1,0,0.1,0
		c2.6,1.2,4.8,3.2,4.9,3.2c0.3,0.3,0.8,0.4,1.2,0.2C155.4,106.8,155.7,106.4,155.7,105.9 M149.5,95.6L149.5,95.6
		c0.4-0.2,0.6-0.7,0.5-1.1c-0.6-3.8,0.1-6.9,0.8-8.8c0,0,0,0,0.1,0c0,0,0.1,0,0.1,0c1.3,2.2,2.2,4.4,2.8,6.5
		c0.6,2.1,0.7,4.2,0.5,6.2c-0.2,2.3-1,4-1.3,4.6c0,0,0,0-0.1,0c0,0,0,0,0,0c-3.3-1.2-6.1-3.4-8.3-6.7c-0.7-1.1-1.3-2.2-1.8-3.4
		c0,0,0-0.1,0-0.1c0,0,0.1,0,0.1,0c2.8,0.8,5.3,2.7,5.3,2.8C148.6,95.8,149.1,95.8,149.5,95.6 M141.3,85.1c0.4,0.3,0.9,0.3,1.3,0
		c0.4-0.3,0.5-0.8,0.4-1.2c-1.1-3.4-0.9-6.6-0.6-8.7c0,0,0-0.1,0.1-0.1c0,0,0.1,0,0.1,0c1.6,1.9,2.8,3.9,3.7,5.9c0.9,2,1.4,4,1.5,6
		c0.1,2.2-0.3,3.9-0.5,4.7c0,0,0,0.1-0.1,0.1c0,0,0,0,0,0c-3.2-0.6-6.3-2.4-9-5.3c-0.9-1-1.8-2-2.5-3.2c0,0,0-0.1,0-0.1
		c0,0,0,0,0.1,0C138.8,83.4,141.3,85.1,141.3,85.1 M133.1,75.7c0.4,0.2,0.9,0.1,1.2-0.3s0.4-0.8,0.2-1.2c-1.8-3.4-2.1-6.6-2-8.6
		c0,0,0-0.1,0-0.1c0,0,0.1,0,0.1,0c1.9,1.6,3.4,3.4,4.6,5.2c1.2,1.8,2,3.8,2.5,5.7c0.5,2.3,0.4,4.1,0.3,4.8c0,0,0,0.1-0.1,0.1
		c-0.1,0-0.1,0-0.2,0c-3.7,0-7-2-9.2-3.7c-1.1-0.8-2.2-1.8-3.2-2.8c0,0,0-0.1,0-0.1c0,0,0,0,0.1,0c0.1,0,0.3,0,0.4,0
		C130.5,74.7,133,75.7,133.1,75.7 M129.8,67.1c0.9,2.2,1,4.3,1,5.4c0,0,0,0.1-0.1,0.1c-0.2,0-0.4,0-0.6,0c-4.5,0-9.8-3-12.6-4.9
		c0,0,0,0,0-0.1s0-0.1,0.1-0.1c2.9-0.6,5.6,0.1,5.6,0.1c0.5,0.1,0.9-0.1,1.2-0.5c0.3-0.4,0.2-0.9-0.1-1.3c-1.8-2.2-2.9-4.8-3.5-6.6
		c0,0,0-0.1,0-0.1c0,0,0.1,0,0.1,0C125.3,60.7,128.3,63.3,129.8,67.1 M47.9,53.8c0.2-0.1,0.4-0.2,0.6-0.2c2.7-0.9,5.2-1.5,6.5-1.8
		c2.9-0.7,5-1.9,5.1-2c0.3-0.2,0.4-0.5,0.3-0.8c-0.1-0.3-0.3-0.5-0.6-0.6l-13-1.9l13-1.9c0.4-0.1,0.6-0.4,0.6-0.7
		c0-0.4-0.3-0.7-0.6-0.7c0,0-2.8-0.4-5.7-1.8c-0.9-0.4-1.6-0.8-2.3-1.2c-1.1-0.6-2.3-1.2-3.7-1.7c0.2,0,0.5,0,0.7,0
		c2.8,0.2,5.4,0.6,6.7,0.8c3,0.5,5.4,0.1,5.5,0.1c0.3-0.1,0.6-0.3,0.6-0.6c0.1-0.3-0.1-0.6-0.4-0.8l-11.3-6.7l12.8,3.2
		c0.4,0.1,0.7-0.1,0.9-0.4c0.1-0.3,0-0.7-0.3-0.9c0,0-2.4-1.5-4.6-3.8c-0.6-0.7-1.2-1.3-1.7-1.9c-0.8-1-1.6-2-2.8-3
		c0.2,0.1,0.4,0.2,0.6,0.3c2.5,1.2,4.8,2.6,5.8,3.3c2.5,1.6,4.9,2.2,5,2.2c0.3,0.1,0.6-0.1,0.8-0.3c0.2-0.3,0.2-0.6,0-0.9l-7.9-10.5
		L69,26.2c0.3,0.2,0.7,0.2,1-0.1c0.3-0.3,0.3-0.7,0.1-1c-0.2-0.2-1.7-2.4-2.8-5.3c-0.3-0.9-0.6-1.7-0.8-2.4
		c-0.4-1.3-0.7-2.5-1.4-3.8c0.2,0.2,0.3,0.3,0.5,0.5c1.9,2.1,3.4,4.2,4.1,5.3c1.7,2.4,3.6,3.8,3.8,3.9c0.3,0.2,0.6,0.2,0.9,0
		c0.3-0.2,0.4-0.5,0.3-0.8L71.3,9.8l6.8,11.3c0.2,0.3,0.6,0.4,0.9,0.3c0.3-0.1,0.5-0.5,0.4-0.9c0-0.1-0.7-2.8-0.6-6
		c0-0.9,0.1-1.8,0.2-2.6c0.1-1.3,0.3-2.6,0.1-4.1c0.1,0.2,0.2,0.4,0.2,0.7c0.9,2.7,1.5,5.2,1.8,6.5c0.6,2.8,1.9,4.9,2,5.1
		c0.2,0.3,0.5,0.4,0.8,0.3c0.3-0.1,0.5-0.3,0.6-0.6l1.8-12.9l1.9,12.9c0.1,0.4,0.4,0.6,0.7,0.6c0.4,0,0.7-0.3,0.7-0.6
		c0-0.1,0.4-2.9,1.7-5.8c0.4-0.8,0.8-1.6,1.2-2.3c0.6-1.2,1.2-2.3,1.7-3.7c0,0.2,0,0.5,0,0.7c-0.2,2.8-0.6,5.4-0.8,6.7
		c-0.5,3-0.1,5.4-0.1,5.5c0.1,0.3,0.3,0.6,0.6,0.6c0.3,0.1,0.6-0.1,0.8-0.4l6.7-11.3l-3.2,12.7c-0.1,0.4,0.1,0.7,0.4,0.9
		c0.3,0.1,0.7,0,0.9-0.3c0.2-0.3,1.6-2.5,3.8-4.6c0.7-0.6,1.3-1.1,1.9-1.7c1-0.8,2-1.6,3-2.8c-0.1,0.2-0.2,0.4-0.3,0.6
		c-1.2,2.5-2.6,4.8-3.3,5.9c-1.6,2.5-2.2,4.9-2.2,5c-0.1,0.3,0.1,0.6,0.3,0.8c0.3,0.2,0.6,0.2,0.9,0l10.5-7.9l-7.8,10.5
		c-0.2,0.3-0.2,0.7,0.1,1c0.3,0.3,0.7,0.3,1,0.1c0,0,2.3-1.7,5.3-2.8c0.9-0.3,1.7-0.6,2.4-0.8c1.3-0.4,2.5-0.7,3.8-1.4
		c-0.2,0.2-0.3,0.3-0.5,0.5c-2.1,1.9-4.2,3.4-5.3,4.1c-2.5,1.7-3.9,3.7-3.9,3.8c-0.2,0.3-0.2,0.6,0,0.9c0.2,0.3,0.5,0.4,0.8,0.3
		l12.7-3.2L111.8,38c-0.3,0.2-0.4,0.6-0.3,0.9c0.1,0.3,0.5,0.5,0.9,0.4c0.3-0.1,2.9-0.7,6-0.6c0.9,0,1.8,0.1,2.6,0.2
		c1.3,0.1,2.6,0.3,4.1,0.1c-0.2,0.1-0.4,0.2-0.6,0.2c-2.7,0.9-5.2,1.5-6.5,1.8c-3,0.7-5,1.9-5.1,2c-0.3,0.2-0.4,0.5-0.3,0.8
		c0.1,0.3,0.3,0.5,0.6,0.6l13,1.9l-13,1.9c-0.4,0.1-0.6,0.4-0.6,0.7c0,0.4,0.3,0.7,0.6,0.7c0.3,0,2.9,0.5,5.7,1.8
		c0.8,0.4,1.6,0.8,2.3,1.2c1.1,0.6,2.3,1.2,3.7,1.7c-0.2,0-0.5,0-0.7,0c-2.8-0.2-5.4-0.6-6.7-0.8l-0.3-0.1c-2.4-1-4.8-1.6-7.2-1.6
		c0,0,0,0,0-0.1c-0.1-0.5-0.5-0.9-1-1.1c-3.5-1.2-6.8-1.9-9.9-1.9c-1.1,0-2.2,0.1-3.2,0.2c0-0.1-0.1-0.3-0.1-0.4
		c-0.2-0.4-0.6-0.7-1.1-0.8c-3.7-0.5-7.1-0.4-10,0.1c-1.2,0.2-2.3,0.6-3.3,1c0-0.3-0.2-0.6-0.4-0.9c-0.3-0.3-0.7-0.5-1.2-0.5
		c-3.7,0.3-7,1.1-9.8,2.3c-0.7,0.3-1.4,0.7-2.1,1.1c0-0.4-0.2-0.7-0.5-1c-0.4-0.3-0.9-0.4-1.3-0.3c-3.6,1-6.8,2.4-9.3,4.1l-0.2,0.1
		c-0.7,0-1.4,0.1-2,0c-0.5,0-2.4-0.2-2.6-0.2C50.7,53.8,49.5,53.7,47.9,53.8 M51.4,57.6C51.5,57.5,51.5,57.5,51.4,57.6
		c0.1,0,0.1,0,0.1,0.1c-0.1,2-0.7,5.1-2.9,8.3c-0.2,0.4-0.2,0.8,0,1.2c0.2,0.4,0.7,0.5,1.1,0.5c0,0,2.8-0.6,5.7-0.3
		c0,0,0.1,0,0.1,0.1c0,0,0,0.1,0,0.1c-2.4,1.9-7.2,5.1-12.4,5.1c-0.2,0-0.4,0-0.6,0c0,0-0.1,0-0.1-0.1C42.4,70,43,63.6,51.4,57.6
		 M33.5,76.5c0.4-1.9,1.3-3.8,2.5-5.7c1.2-1.8,2.8-3.6,4.7-5.3c0,0,0.1,0,0.1,0c0,0,0,0,0,0.1c0.1,2-0.2,5.1-2,8.6
		c-0.2,0.4-0.2,0.9,0.1,1.2c0.3,0.3,0.8,0.5,1.2,0.3c0,0,2.7-0.9,5.5-1c0,0,0.1,0,0.1,0c0,0,0,0.1,0,0.1c-1.1,1.1-2.2,2-3.2,2.9
		c-2.2,1.7-5.5,3.7-8.7,3.7c-0.1,0-0.3,0-0.4,0c0,0-0.1,0-0.1-0.1C33.2,80.6,33,78.8,33.5,76.5 M30.7,75C30.7,75,30.7,75,30.7,75
		c0.1,0,0.1,0,0.1,0c0.4,2,0.6,5.1-0.6,8.8c-0.1,0.4,0,0.9,0.4,1.2c0.4,0.3,0.9,0.3,1.3,0c0,0,2.4-1.7,5.5-1.9c0,0,0.1,0,0.1,0
		c0,0,0,0.1,0,0.1c-2,2.8-6.1,7.6-11.4,8.5h0c0,0-0.1,0-0.1-0.1C25.1,89.4,24,83,30.7,75 M19.2,92.2c0.6-2.1,1.7-4.2,3.1-6.4
		c0,0,0,0,0.1,0c0,0,0.1,0,0.1,0.1c0.6,1.9,1.2,5,0.4,8.8c-0.1,0.5,0.1,1,0.6,1.2c0.4,0.2,0.9,0.2,1.3-0.2c0,0,2.3-2.2,5.4-2.6
		c0,0,0.1,0,0.1,0c0,0,0,0.1,0,0.1c-0.4,0.9-1.1,2.2-2.2,3.6c-2.4,3.2-5.2,5.3-8.4,6.3c0,0,0,0,0,0c0,0-0.1,0-0.1,0
		c-0.3-0.6-1-2.3-1.1-4.6C18.3,96.3,18.5,94.3,19.2,92.2 M13,104c0.3-2.2,1-4.4,2.1-6.8c0,0,0,0,0.1,0h0c0,0,0.1,0,0.1,0
		c0.9,1.8,1.9,4.8,1.7,8.7c0,0.4,0.2,0.8,0.6,1c0.4,0.2,0.9,0.1,1.2-0.2c0.1-0.1,2.4-2.1,5.1-3.3c0,0,0.1,0,0.1,0c0,0,0,0,0,0.1
		c-0.3,1.1-0.7,2.2-1.2,3.2c-1.7,3.4-4.3,6-7.8,7.8c0,0,0,0,0,0c0,0,0,0-0.1,0c-0.5-0.7-1.3-2.2-1.8-4.4
		C12.7,108.3,12.7,106.2,13,104 M9.6,109.6C9.7,109.6,9.7,109.5,9.6,109.6c0.1-0.1,0.1,0,0.1,0c1.1,1.7,2.5,4.5,2.8,8.4
		c0,0.4,0.3,0.8,0.8,1c0.4,0.1,0.9,0,1.2-0.3c0,0,2-2.3,4.7-3.9c0,0,0.1,0,0.1,0c0,0,0,0,0,0.1c-0.1,1.2-0.4,2.3-0.8,3.4
		c-1.2,3.7-3.5,6.6-6.8,8.6c0,0,0,0,0,0c0,0,0,0-0.1,0c-0.4-0.5-1.6-2-2.3-4.1c-0.7-1.9-1-3.9-0.9-6.1C8.5,114.4,8.9,112,9.6,109.6
		 M5.9,122.5C5.9,122.4,5.9,122.4,5.9,122.5c0.1-0.1,0.1-0.1,0.1,0c1.3,1.5,3.1,4.2,3.8,8c0.1,0.4,0.4,0.8,0.9,0.9
		c0.4,0.1,0.9-0.1,1.1-0.5c0.1-0.1,1.8-2.5,4.1-4.3c0,0,0.1,0,0.1,0c0,0,0,0,0,0.1c-0.1,1.1-0.2,2.3-0.5,3.4
		c-0.9,3.7-2.7,6.9-5.4,9.3c0,0,0,0-0.1,0c0,0,0,0-0.1,0c-0.6-0.6-1.8-1.8-2.8-3.8c-0.9-1.8-1.4-3.8-1.7-6
		C5.3,127.3,5.4,125,5.9,122.5 M3.9,135.4C3.9,135.4,3.9,135.3,3.9,135.4c0.1-0.1,0.1-0.1,0.1,0c1.4,1.5,3.3,4,4.2,7.8
		c0.1,0.4,0.5,0.8,1,0.8c0.5,0,0.9-0.2,1.1-0.6c0,0,1.2-2.5,3.4-4.5c0,0,0.1,0,0.1,0c0,0,0,0,0,0.1c0,1.3-0.1,2.6-0.3,3.9
		c-0.7,3.9-2.2,7.1-4.6,9.3c0,0,0,0-0.1,0c0,0,0,0,0,0c-0.5-0.4-1.9-1.7-3-3.7c-1-1.7-1.6-3.7-1.9-5.9
		C3.6,140.3,3.6,137.9,3.9,135.4 M2.8,149C2.8,148.9,2.9,148.9,2.8,149c0.1-0.1,0.1-0.1,0.1-0.1c0.3,0.3,0.6,0.5,0.8,0.8
		c1.2,1.3,2.8,3.5,3.9,6.7c0.2,0.5,0.6,0.8,1.1,0.8c0.5,0,0.9-0.4,1-0.9v0c0,0,0.5-2.8,2.8-4.9c0,0,0,0,0.1,0c0,0,0,0,0.1,0.1
		c0.2,1.5,0.4,3.9,0,6.4c-0.5,3-1.8,5.5-3.8,7.4c0,0,0,0-0.1,0c0,0,0,0,0,0C6.8,163.8,2.2,159.3,2.8,149 M2.3,162.1
		C2.3,162.1,2.4,162.1,2.3,162.1c0.4,0.2,0.7,0.5,1,0.7c1.3,1.2,3.2,3.2,4.6,6.3c0.2,0.4,0.6,0.7,1,0.7h0h0c0.4,0,0.8-0.3,1-0.7
		c0,0,1.2-2.9,3.1-5.2c0,0,0,0,0.1,0c0,0,0,0,0.1,0.1c0.6,2.8,1,8.3-3.1,13.8c0,0,0,0-0.1,0c0,0,0,0,0,0
		C7.8,176.5,2.7,172.5,2.3,162.1C2.3,162.2,2.3,162.1,2.3,162.1 M3,175.8C3,175.8,3,175.8,3,175.8c0.1-0.1,0.1-0.1,0.1-0.1
		c1.8,0.9,4.4,2.7,6.6,5.9c0.2,0.4,0.7,0.5,1.1,0.5c0.4-0.1,0.8-0.4,0.9-0.8v0l0.1,0l-0.1,0c0-0.1,0.7-3.2,2.2-5.7c0,0,0,0,0.1,0
		c0,0,0.1,0,0.1,0c0.5,1.1,0.9,2.3,1.2,3.5c0.8,3.7,0.2,7.4-1.8,10.8c0,0,0,0-0.1,0c0,0,0,0,0,0c-0.6-0.2-2.3-0.9-4.1-2.5
		c-1.5-1.3-2.8-3-3.8-4.9C4.4,180.5,3.5,178.3,3,175.8 M6.1,188.6C6.1,188.5,6.1,188.5,6.1,188.6c0-0.1,0.1-0.1,0.1-0.1
		c0.4,0.1,0.7,0.3,1,0.5c1.6,0.8,3.9,2.3,6,5c0.3,0.3,0.7,0.5,1.1,0.4c0.4-0.1,0.7-0.5,0.8-0.9c0,0,0.4-3,1.7-5.7c0,0,0,0,0.1,0
		c0,0,0.1,0,0.1,0c1.3,2.8,3.1,8.4,0.5,14.1c0,0,0,0-0.1,0c0,0,0,0,0,0C15,201.1,9.1,198.5,6.1,188.6 M13.8,207.4
		c-1.4-1.7-2.6-3.7-3.6-6.1c0,0,0-0.1,0-0.1c0,0,0.1,0,0.1,0c0.4,0.1,0.7,0.2,1.1,0.4c1.7,0.6,4.1,1.9,6.5,4.2
		c0.3,0.3,0.8,0.4,1.2,0.2c0.4-0.2,0.7-0.6,0.7-1c0,0,0.1-3,1-5.7c0,0,0,0,0.1-0.1c0,0,0.1,0,0.1,0c0.6,1.1,1.2,2.2,1.6,3.4
		c1.4,3.7,1.6,7.2,0.6,10.4c0,0,0,0.1-0.1,0.1c0,0,0,0,0,0c-0.7-0.1-2.5-0.5-4.5-1.7C16.7,210.5,15.2,209.1,13.8,207.4 M15.6,213.4
		C15.6,213.4,15.6,213.4,15.6,213.4c0-0.1,0-0.1,0.1-0.1c2,0.3,5,1.3,8.1,3.7c0.3,0.3,0.8,0.3,1.2,0.1c0.4-0.2,0.6-0.6,0.6-1.1
		c0-0.1-0.3-2.8,0.3-5.7c0,0,0-0.1,0.1-0.1c0,0,0.1,0,0.1,0c0.7,1.1,1.4,2.2,1.9,3.3c1.2,2.5,2.5,6.2,1.9,10.1c0,0,0,0.1-0.1,0.1h0
		c-0.8,0-2.6-0.3-4.6-1.2c-1.8-0.8-3.6-2-5.2-3.5C18.4,217.5,16.9,215.6,15.6,213.4 M40.9,235.4c0,0-1.1-2.7-1.3-5.6
		c0,0,0-0.1,0-0.1c0,0,0.1,0,0.1,0c2.6,2.1,6.8,6.6,6.6,12.5c0,0,0,0.1-0.1,0.1c-0.3,0.1-0.9,0.1-1.7,0.1c-0.7,0-1.6-0.1-2.6-0.3
		c-3.7-0.7-7.5-2.9-11.2-6.4c0,0,0-0.1,0-0.1c0,0,0-0.1,0.1-0.1c2-0.3,5.2-0.3,8.8,1.2c0.4,0.2,0.9,0.1,1.2-0.3
		C41,236.3,41.1,235.8,40.9,235.4 M31,227.5c0.4,0.2,0.9,0.2,1.2,0c0.4-0.3,0.5-0.7,0.4-1.2c0,0-0.7-2.7-0.4-5.6c0,0,0-0.1,0.1-0.1
		c0,0,0.1,0,0.1,0c2.1,2.5,5.6,7.6,5.2,12.9c0,0,0,0.1-0.1,0.1c-0.1,0-0.3,0-0.5,0c-0.9,0-2.4-0.1-4.2-0.7c-1.9-0.6-3.8-1.6-5.5-3
		c-1.7-1.4-3.4-3.1-4.9-5.1c0,0,0-0.1,0-0.1c0,0,0,0,0.1,0C24.5,224.8,27.6,225.4,31,227.5 M73.9,198.7c-0.4,0.2-0.7,0.5-1,0.7
		c-2.3,1.6-3.8,3.4-4.3,5.2c-0.3-0.1-0.6-0.1-0.9-0.2c-1.8-0.6-1.9-1.5-1.9-1.8c-0.1-0.9,0.4-1.8,1.8-3.1c1.6-1.5,2.9-2.3,4.1-2.3
		c0.4,0,0.8,0.1,1.2,0.3c0.6,0.3,0.9,0.6,1,0.9C73.9,198.5,73.9,198.6,73.9,198.7 M76.2,207.8c-0.7,0.1-2.7,0.3-3.6-0.3
		c-0.2-0.2-0.5-0.4-0.5-1c-0.2-1.5,1.8-3.2,3-4c1.9-1.3,3.1-2,4.2-2c0.5,0,1,0.2,1.4,0.6c0.4,0.3,0.6,0.6,0.6,0.9
		c0,0.5-0.6,1.2-1.2,1.7C78.1,204.7,76.9,206.2,76.2,207.8 M85.5,208.1c-0.7,0.5-3.1,2-4.8,1.7c-0.3-0.1-0.7-0.2-1.1-0.6
		c0.8-1.6,2.5-2.8,4.1-3.7c2.1-1.2,3-0.5,3-0.5c0.6,0.6,0.6,0.9,0.6,1c-0.1,0.7-1.1,1.6-1.6,1.9C85.6,208,85.5,208,85.5,208.1
		 M65.9,196c-0.3,0.2-0.6,0.5-0.9,0.8c-1.1,1-2.2,2.3-2.7,4c-0.3,0-0.5-0.1-0.8-0.1c-1.2-0.2-1.8-0.6-2-0.9
		c-0.1-0.2-0.3-0.7,0.4-1.6c1-1.3,3.2-2.4,4.7-2.4c0.1,0,0.3,0,0.4,0c0.1,0,0.1,0,0.2,0C65.4,195.9,65.6,196,65.9,196 M113,198.3
		c-0.5,0.5-1.4,0.8-2.4,0.8c-1.5-2.1-5.5-6.9-10.6-9.4c-0.4-0.2-0.9-0.2-1.4-0.1c-0.5,0.2-0.8,0.5-1,0.9c-0.2,0.4-0.2,0.9-0.1,1.4
		c0.2,0.5,0.5,0.8,0.9,1.1c4.3,2.1,7.8,6.4,9.2,8.2c-0.1,0.3-0.3,0.6-0.5,0.8c-0.7,0.8-1.7,1.2-3,1.2c-0.5-1-1.3-2.2-2.4-3.5
		c-1.6-1.8-4.7-4-4.8-4.1c-0.4-0.3-0.9-0.4-1.4-0.3c-0.5,0.1-0.9,0.4-1.2,0.8c-0.3,0.4-0.4,0.9-0.3,1.4c0.1,0.5,0.3,0.9,0.8,1.2
		c0.8,0.6,3.1,2.3,4.2,3.5c1.2,1.4,1.7,2.3,1.9,2.7c-0.2,0.3-0.4,0.8-0.8,1.2c-0.7,0.6-1.4,0.9-2.4,0.8c-0.5-1-1.5-3-3.3-5.1
		c-0.7-0.8-1.8-0.8-2.6-0.2c-0.4,0.3-0.6,0.8-0.6,1.3c0,0.5,0.1,1,0.5,1.3c1.3,1.4,2.1,2.8,2.5,3.7c-0.3,0.2-0.6,0.4-1,0.5
		c-0.9,0.4-1.9,0.5-3,0.4c0.5-0.7,0.7-1.5,0.8-2.2c0.1-1-0.1-2.5-1.6-4c-0.8-0.8-2.3-1.5-4.4-1.2c-0.2-1.1-0.8-2.1-1.8-3
		c-1.7-1.4-3.6-1.8-5.8-1.2v0c-0.3-0.8-1.1-2-2.8-2.8c-1.5-0.8-3.2-0.9-4.9-0.3c-1.5-1.3-3.5-1.5-4-1.5c-2.4-0.3-5.6,0.8-7.7,2.8
		c-10.5,5.6-23.9,11.6-29.4,14.1c-2.9-5.4-5.3-11.2-7.3-17.3c-0.5-1.7-1-3.4-1.5-5.1c15.4-1.8,27.7-3.6,36.7-5.4
		c9.5-1.9,15.5-3.8,18.7-5.9c3.6-2.5,6.1-3.8,9.5-3.5c0.8,0.1,1.5,0.1,2.2,0.2c-0.7,0.3-1.3,0.6-1.9,1c-1.4,1-2.3,1.7-3.1,2.4
		c-0.8,0.6-1.4,1.2-2.4,1.8c-0.7,0.4-1.6,0.9-2.5,1.3c-2.1,1-3.8,1.9-4.4,3.3c-0.6,1.6-0.4,2.9,0.7,4.5c1.6,2.3,4.3,2.1,6.4,2
		c2.4-0.1,5.3-1,7.4-2.2c0.8-0.4,1.4-0.9,2-1.3c0.9-0.6,1.7-1.1,2.3-1.3c0,0,0.1,0,0.1,0c1.8-0.5,3.9-0.3,6.4,0.7
		c2.2,0.9,4.4,2.2,6.4,3.5c4.8,3.1,8.3,7.3,9.4,8.6C113.8,197.1,113.6,197.8,113,198.3 M119.7,196.9c-1.6-1.1-2.7-2.3-3.2-2.8
		c0,0,0,0,0,0l-0.1-0.1c-0.1-0.2-0.2-0.3-0.3-0.3c-1.6-2-5.1-5.7-9.7-8.7c-3.4-2.2-9.7-6.3-15.7-4.6c-1.2,0.3-2.3,1-3.5,1.8
		c-0.6,0.4-1.2,0.8-1.8,1.2c-1.9,1.1-4.3,1.7-5.8,1.8c-1.7,0.1-2.8,0.1-3.3-0.5c-0.4-0.6-0.4-0.7-0.3-0.9c0.4-0.4,1.8-1.1,2.6-1.4
		c1-0.5,2-1,2.9-1.6c1.2-0.8,1.9-1.4,2.7-2c0.7-0.6,1.6-1.3,2.9-2.2C89,175,91,175,94,174.9l0.1,0c0.5,0,0.9,0,1.4,0
		c0.4,0,0.7,0,1.1,0c3.2-0.1,6.2,0.9,10.6,2.5c1.3,0.5,2.7,1,4.4,1.5c0.2,0.1,6.2,2,14.3,3.9c7,1.7,17.4,3.8,27.1,4.4
		c-0.4,1.6-0.9,3.1-1.4,4.6c-2,6.3-4.6,12.3-7.6,17.9C139.2,207.7,127.4,202.6,119.7,196.9 M142.4,235.8c-4.7,4.4-8.7,5.9-11.2,6.4
		c-1,0.2-1.9,0.3-2.6,0.3c-0.8,0-1.3-0.1-1.7-0.1c0,0-0.1,0-0.1-0.1c-0.2-3.3,1.1-6.6,3.8-9.7c0.8-1,1.8-1.9,2.8-2.7
		c0,0,0.1,0,0.1,0c0,0,0,0,0,0.1c-0.3,2.8-1.4,5.5-1.4,5.5c-0.2,0.4-0.1,0.9,0.2,1.2c0.3,0.3,0.8,0.4,1.2,0.3
		c3.7-1.4,6.8-1.4,8.8-1.2C142.4,235.7,142.4,235.7,142.4,235.8C142.4,235.8,142.4,235.8,142.4,235.8 M150.7,224.8
		c-1.5,2-3.1,3.8-4.9,5.1c-1.7,1.4-3.6,2.4-5.5,3c-1.8,0.6-3.3,0.7-4.2,0.7c-0.2,0-0.4,0-0.5,0c0,0-0.1,0-0.1-0.1
		c-0.2-3.2,0.7-6.6,2.9-9.9c0.7-1,1.4-2.1,2.3-3c0,0,0.1,0,0.1,0c0,0,0,0,0.1,0.1c0.3,2.9-0.3,5.7-0.3,5.8c-0.1,0.4,0.1,0.9,0.5,1.1
		c0.4,0.3,0.8,0.3,1.2,0c3.3-2.1,6.4-2.7,8.4-2.8C150.6,224.7,150.7,224.7,150.7,224.8C150.7,224.7,150.7,224.8,150.7,224.8
		 M153.2,219c-1.6,1.5-3.3,2.7-5.2,3.5c-2.1,1-4,1.1-4.7,1.2h0c0,0-0.1,0-0.1-0.1c-0.6-3.2,0.1-6.6,1.8-10.2
		c0.6-1.1,1.2-2.2,1.9-3.2c0,0,0,0,0.1,0c0,0,0.1,0,0.1,0.1c0.6,2.8,0.3,5.7,0.3,5.8c0,0.4,0.2,0.9,0.6,1.1c0.4,0.2,0.9,0.2,1.2-0.1
		c3.1-2.4,6.1-3.4,8.1-3.7c0,0,0.1,0,0.1,0c0,0,0,0.1,0,0.1C156.2,215.6,154.8,217.5,153.2,219 M159.3,207.2c-1.4,1.7-3,3.1-4.7,4.1
		c-1.9,1.1-3.6,1.6-4.5,1.7c0,0,0,0,0,0c0,0-0.1,0-0.1-0.1c-1-3.3-0.7-6.8,0.6-10.5c0.4-1.1,0.9-2.2,1.5-3.3c0,0,0,0,0.1,0
		c0,0,0.1,0,0.1,0.1c0.9,2.8,1,5.7,1,5.7c0,0.4,0.3,0.8,0.7,1c0.4,0.2,0.9,0,1.2-0.3c2.4-2.6,4.9-3.9,6.5-4.4
		c0.4-0.1,0.8-0.2,1.2-0.3c0,0,0.1,0,0.1,0c0,0,0,0.1,0,0.1C161.9,203.4,160.7,205.5,159.3,207.2 M163.9,194.9
		c-1.2,1.8-2.7,3.4-4.3,4.6c-1.9,1.4-3.6,1.9-4.3,2.1c0,0,0,0,0,0c0,0-0.1,0-0.1,0c-1.6-3.8-1.1-7.8-0.4-10.5
		c0.3-1.2,0.7-2.5,1.2-3.7c0,0,0,0,0.1,0h0c0,0,0.1,0,0.1,0c1.2,2.7,1.6,5.7,1.6,5.9c0.1,0.4,0.4,0.8,0.8,0.9c0.4,0.1,0.9,0,1.2-0.4
		c2.5-3,5.2-4.6,7.1-5.3c0,0,0.1,0,0.1,0c0,0,0,0.1,0,0.1C166.1,190.9,165.1,193,163.9,194.9 M167.3,182c-1,2-2.2,3.7-3.7,5
		c-1.6,1.5-3.2,2.3-4,2.6c0,0,0,0,0,0c0,0-0.1,0-0.1,0c-1.7-3-2.3-6.6-1.8-10.6c0.1-1.2,0.4-2.5,0.7-3.7c0,0,0-0.1,0.1-0.1
		c0,0,0.1,0,0.1,0c1.5,2.6,2.3,5.7,2.3,5.7c0.1,0.4,0.5,0.8,0.9,0.8c0.4,0.1,0.9-0.1,1.1-0.5c2.1-3.3,4.6-5.2,6.4-6.2
		c0,0,0.1,0,0.1,0c0,0,0,0,0,0.1C169,177.8,168.3,180,167.3,182"/>
	<path class="st3" d="M110,52c2.4,0,4.8,0.6,7.2,1.6l0.3,0.1c1.3,0.2,3.8,0.6,6.7,0.8c0.2,0,0.5,0,0.7,0c-1.5-0.5-2.6-1.1-3.7-1.7
		c-0.7-0.4-1.4-0.8-2.3-1.2c-2.8-1.3-5.5-1.7-5.7-1.8c-0.4-0.1-0.6-0.4-0.6-0.7c0-0.4,0.3-0.7,0.6-0.7l13-1.9l-13-1.9
		c-0.3,0-0.6-0.3-0.6-0.6c-0.1-0.3,0.1-0.6,0.3-0.8c0.1-0.1,2.1-1.3,5.1-2c1.3-0.3,3.8-0.9,6.5-1.8c0.2-0.1,0.4-0.2,0.6-0.2
		c-1.5,0.1-2.8,0-4.1-0.1c-0.8-0.1-1.6-0.2-2.6-0.2c-3-0.1-5.7,0.5-6,0.6c-0.4,0.1-0.7-0.1-0.9-0.4c-0.1-0.3,0-0.7,0.3-0.9l11.3-6.8
		l-12.7,3.2c-0.3,0.1-0.6,0-0.8-0.3c-0.2-0.3-0.2-0.6,0-0.9c0.1-0.1,1.5-2.1,3.9-3.8c1.1-0.7,3.2-2.3,5.3-4.1
		c0.2-0.2,0.3-0.3,0.5-0.5c-1.4,0.7-2.6,1.1-3.8,1.4c-0.8,0.2-1.6,0.5-2.4,0.8c-3,1.1-5.3,2.8-5.3,2.8c-0.3,0.2-0.7,0.2-1-0.1
		c-0.3-0.3-0.3-0.7-0.1-1l7.8-10.5L104,26.2c-0.2,0.2-0.6,0.2-0.9,0c-0.3-0.2-0.4-0.5-0.3-0.8c0-0.1,0.6-2.5,2.2-5
		c0.7-1.1,2.1-3.3,3.3-5.9c0.1-0.2,0.2-0.4,0.3-0.6c-1,1.2-2,2-3,2.8c-0.6,0.5-1.3,1-1.9,1.7c-2.2,2.1-3.7,4.4-3.8,4.6
		c-0.2,0.3-0.6,0.5-0.9,0.3c-0.3-0.1-0.5-0.5-0.4-0.9l3.2-12.7l-6.7,11.3c-0.2,0.3-0.5,0.4-0.8,0.4c-0.3-0.1-0.6-0.3-0.6-0.6
		c0-0.1-0.4-2.5,0.1-5.5c0.2-1.3,0.6-3.9,0.8-6.7c0-0.2,0-0.5,0-0.7c-0.5,1.5-1.1,2.6-1.7,3.7c-0.4,0.7-0.8,1.4-1.2,2.3
		c-1.3,2.9-1.7,5.6-1.7,5.8c-0.1,0.4-0.4,0.6-0.7,0.6s-0.7-0.3-0.7-0.6L86.5,6.9l-1.8,12.9c0,0.3-0.3,0.6-0.6,0.6
		c-0.3,0.1-0.6-0.1-0.8-0.3c-0.1-0.2-1.4-2.2-2-5.1c-0.3-1.3-0.9-3.8-1.8-6.5c-0.1-0.2-0.2-0.4-0.2-0.6c0.1,1.5,0,2.8-0.1,4.1
		c-0.1,0.8-0.2,1.6-0.2,2.6c-0.1,3.2,0.5,5.9,0.6,6c0.1,0.4-0.1,0.7-0.4,0.9c-0.3,0.1-0.7,0-0.9-0.3L71.3,9.8l3.3,12.7
		c0.1,0.3,0,0.6-0.3,0.8c-0.3,0.2-0.6,0.2-0.9,0c-0.2-0.2-2.1-1.5-3.8-3.9c-0.7-1.1-2.3-3.2-4.1-5.3c-0.2-0.2-0.3-0.3-0.5-0.5
		c0.7,1.4,1.1,2.6,1.4,3.8c0.2,0.8,0.5,1.6,0.8,2.4c1.1,2.9,2.6,5.1,2.8,5.3c0.2,0.3,0.2,0.7-0.1,1c-0.3,0.3-0.7,0.3-1,0.1
		l-10.6-7.8l7.9,10.5c0.2,0.3,0.2,0.6,0,0.9c-0.2,0.3-0.5,0.4-0.8,0.3c-0.1,0-2.5-0.6-5-2.2c-1.1-0.7-3.3-2-5.9-3.3
		c-0.2-0.1-0.4-0.2-0.6-0.3c1.2,1,2,2,2.8,3c0.5,0.6,1,1.3,1.7,1.9c2.2,2.3,4.6,3.8,4.6,3.8c0.3,0.2,0.5,0.6,0.3,0.9
		c-0.1,0.3-0.5,0.5-0.9,0.4l-12.8-3.2L61.1,38c0.3,0.2,0.4,0.5,0.4,0.8c-0.1,0.3-0.3,0.6-0.6,0.6c-0.1,0-2.5,0.4-5.5-0.1
		c-1.3-0.2-3.8-0.6-6.7-0.8c-0.2,0-0.5,0-0.7,0c1.5,0.5,2.6,1.1,3.7,1.7c0.7,0.4,1.4,0.8,2.3,1.2c2.9,1.3,5.7,1.7,5.7,1.8
		c0.4,0.1,0.6,0.4,0.6,0.7c0,0.4-0.3,0.7-0.6,0.7l-13,1.9l13,1.9c0.3,0,0.6,0.3,0.6,0.6c0.1,0.3-0.1,0.6-0.3,0.8
		c-0.1,0.1-2.1,1.3-5.1,2c-1.3,0.3-3.8,0.9-6.5,1.8c-0.2,0.1-0.4,0.2-0.6,0.2c1.5-0.1,2.8,0,4.1,0.1c0.2,0,2,0.2,2.6,0.2
		c0.6,0,1.3,0,2,0l0.2-0.1c2.5-1.8,5.7-3.1,9.3-4.1c0.5-0.1,1,0,1.3,0.3c0.3,0.3,0.5,0.6,0.5,1c0.7-0.4,1.4-0.7,2.1-1.1
		c2.7-1.2,6-2,9.8-2.3c0.5,0,0.9,0.1,1.2,0.5c0.2,0.2,0.4,0.5,0.4,0.9c1-0.4,2.2-0.7,3.3-1c2.9-0.6,6.3-0.6,10-0.1
		c0.5,0.1,0.9,0.4,1.1,0.8c0.1,0.1,0.1,0.3,0.1,0.4c1-0.2,2.1-0.2,3.2-0.2c3,0,6.3,0.7,9.9,1.9C109.5,51.1,109.9,51.5,110,52
		C110,52,110,52,110,52"/>
	<path class="st2" d="M91.1,35.6c12.6-2,14,1.6,14,1.6s0.3,0.8,1.4,0.6c0,0,0.9-0.1,0.4-1.1c0,0-1.4-4.1-8.1-4.9
		c0,0-3.5-0.5-7.3,0.2c-1.1,0.2-1.4,2.7-1.4,2.7C89.9,35.8,91.1,35.6,91.1,35.6"/>
	<path class="st2" d="M80.3,38.1c-1.5-0.7-5.1-0.6-5.1-0.6c-5.7,0.2-7.2,3.7-7.2,3.7c-0.5,1.2,0.5,1.3,0.5,1.3
		c1.2,0.3,1.6-0.7,1.6-0.7s0.3-1,2.7-1.6c-0.1,0.3-0.2,0.7-0.2,1.1c0,1.6,1.3,2.9,2.9,2.9c1.6,0,2.9-1.3,2.9-2.9
		c0-0.4-0.1-0.8-0.2-1.2c0.8,0.3,1.6,0.9,2.1,1.9c0.2,0.4,0.6,0.6,1.7,0.6c1.2,0,0.9-0.8,0.9-0.8C82.2,38.9,80.3,38.1,80.3,38.1"/>
	<path class="st2" d="M90.8,42.7c1.1,0,1.5-0.2,1.7-0.6c0.5-1,1.3-1.6,2.1-1.9c-0.2,0.4-0.2,0.7-0.2,1.2c0,1.6,1.3,2.9,2.9,2.9
		c1.6,0,2.9-1.3,2.9-2.9c0-0.4-0.1-0.7-0.2-1.1c2.4,0.6,2.7,1.6,2.7,1.6s0.4,1,1.6,0.7c0,0,1-0.1,0.5-1.3c0,0-1.5-3.5-7.2-3.7
		c0,0-3.5-0.1-5.1,0.6c0,0-1.9,0.9-2.6,3.9C89.9,41.9,89.6,42.7,90.8,42.7"/>
	<path class="st2" d="M66.4,37.8c1,0.3,1.4-0.6,1.4-0.6s1.4-3.6,14-1.6c0,0,1.1,0.2,1-0.9c0,0-0.3-2.5-1.4-2.7
		c-3.8-0.7-7.3-0.2-7.3-0.2c-6.7,0.7-8.1,4.9-8.1,4.9C65.5,37.7,66.4,37.8,66.4,37.8"/>
	<path class="st4" d="M142.3,235.7c-2-0.3-5.2-0.3-8.8,1.2c-0.4,0.2-0.9,0.1-1.2-0.3c-0.3-0.3-0.4-0.8-0.2-1.2c0,0,1.1-2.7,1.4-5.5
		c0,0,0-0.1,0-0.1c0,0-0.1,0-0.1,0c-1,0.9-2,1.8-2.8,2.7c-2.7,3.1-4,6.4-3.8,9.7c0,0,0,0.1,0.1,0.1c0.4,0.1,1,0.1,1.7,0.1
		c0.7,0,1.6-0.1,2.6-0.3c2.5-0.5,6.5-2,11.2-6.4C142.4,235.8,142.4,235.8,142.3,235.7C142.4,235.7,142.4,235.7,142.3,235.7"/>
	<path class="st4" d="M39.7,229.8C39.7,229.8,39.6,229.8,39.7,229.8c-0.1,0-0.1,0-0.1,0.1c0.2,2.9,1.3,5.5,1.3,5.6
		c0.2,0.4,0.1,0.9-0.2,1.2c-0.3,0.3-0.8,0.4-1.2,0.3c-3.7-1.4-6.8-1.4-8.9-1.2c0,0-0.1,0-0.1,0.1c0,0,0,0.1,0,0.1
		c3.8,3.5,7.6,5.7,11.2,6.4c1,0.2,1.9,0.3,2.6,0.3c0.8,0,1.4-0.1,1.7-0.1c0,0,0.1,0,0.1-0.1C46.5,236.4,42.3,231.9,39.7,229.8"/>
	<path class="st4" d="M150.6,224.7c-2,0.1-5.1,0.7-8.4,2.8c-0.4,0.2-0.8,0.2-1.2,0c-0.4-0.3-0.5-0.7-0.5-1.1c0,0,0.6-2.9,0.3-5.8
		c0,0,0-0.1-0.1-0.1c0,0-0.1,0-0.1,0c-0.8,1-1.6,2-2.3,3c-2.2,3.4-3.1,6.7-2.9,9.9c0,0,0,0.1,0.1,0.1c0.1,0,0.3,0,0.5,0
		c0.9,0,2.4-0.1,4.2-0.7c1.9-0.6,3.8-1.6,5.5-3c1.7-1.4,3.4-3.1,4.9-5.1C150.7,224.8,150.7,224.7,150.6,224.7
		C150.7,224.7,150.6,224.7,150.6,224.7"/>
	<path class="st4" d="M157.4,213.3c-2,0.3-5,1.3-8.1,3.7c-0.3,0.3-0.8,0.3-1.2,0.1c-0.4-0.2-0.6-0.6-0.6-1.1c0,0,0.3-3-0.3-5.8
		c0,0,0-0.1-0.1-0.1c0,0-0.1,0-0.1,0c-0.7,1-1.4,2.1-1.9,3.2c-1.8,3.6-2.4,7-1.8,10.2c0,0,0,0.1,0.1,0.1h0c0.7,0,2.5-0.2,4.7-1.2
		c1.8-0.8,3.6-2,5.2-3.5c1.6-1.5,3-3.4,4.3-5.6C157.5,213.4,157.5,213.4,157.4,213.3C157.5,213.3,157.4,213.3,157.4,213.3"/>
	<path class="st4" d="M162.9,200.9c-0.4,0.1-0.8,0.2-1.2,0.3c-1.6,0.6-4.1,1.8-6.5,4.4c-0.3,0.3-0.8,0.4-1.2,0.3
		c-0.4-0.2-0.7-0.5-0.7-1c0,0-0.1-2.9-1-5.7c0,0,0,0-0.1-0.1c0,0-0.1,0-0.1,0c-0.6,1.1-1.1,2.2-1.5,3.3c-1.4,3.7-1.6,7.2-0.6,10.5
		c0,0,0,0.1,0.1,0.1c0,0,0,0,0,0c0.8-0.1,2.5-0.6,4.5-1.7c1.7-1,3.3-2.4,4.7-4.1c1.4-1.7,2.7-3.8,3.7-6.2
		C163,201,162.9,200.9,162.9,200.9C162.9,200.9,162.9,200.9,162.9,200.9"/>
	<path class="st4" d="M166.8,188.4c-1.9,0.8-4.7,2.3-7.1,5.3c-0.3,0.3-0.7,0.5-1.2,0.4c-0.4-0.1-0.7-0.5-0.8-0.9
		c0-0.1-0.4-3.2-1.6-5.9c0,0,0,0-0.1,0c0,0-0.1,0-0.1,0c-0.5,1.2-0.9,2.4-1.2,3.7c-0.7,2.7-1.1,6.8,0.5,10.5c0,0,0,0,0.1,0
		c0,0,0,0,0,0c0.7-0.2,2.4-0.7,4.3-2.1c1.6-1.2,3-2.7,4.3-4.6c1.2-1.8,2.2-4,3-6.4C166.9,188.5,166.9,188.4,166.8,188.4
		C166.8,188.4,166.8,188.4,166.8,188.4"/>
	<path class="st4" d="M169.4,175.2c-1.8,1-4.3,2.8-6.4,6.2c-0.2,0.4-0.7,0.6-1.1,0.5c-0.4-0.1-0.8-0.4-0.9-0.8c0,0-0.8-3.2-2.3-5.7
		c0,0,0,0-0.1,0c0,0-0.1,0-0.1,0.1c-0.3,1.2-0.6,2.5-0.7,3.7c-0.5,4,0.1,7.6,1.8,10.6c0,0,0,0,0.1,0c0,0,0,0,0,0
		c0.8-0.3,2.3-1.1,4-2.6c1.5-1.4,2.7-3.1,3.7-5c1-2,1.7-4.2,2.2-6.7C169.5,175.3,169.5,175.2,169.4,175.2
		C169.4,175.2,169.4,175.2,169.4,175.2"/>
	<path class="st4" d="M164.9,168.8c-0.2,0.4-0.6,0.7-1.1,0.6c-0.4,0-0.8-0.3-1-0.7c0,0-1-3-2.8-5.2c0,0,0,0-0.1,0c0,0-0.1,0-0.1,0.1
		c-0.2,1.3-0.4,2.5-0.4,3.8c-0.1,3.9,0.9,7.3,3,10.1c0,0,0,0,0.1,0c0,0,0,0,0,0c0.6-0.3,2.2-1.3,3.7-3c1.3-1.5,2.3-3.3,3.1-5.4
		c0.7-2.1,1.2-4.4,1.4-6.9c0,0,0-0.1,0-0.1c0,0-0.1,0-0.1,0C168.9,163.1,166.5,165.3,164.9,168.8"/>
	<path class="st4" d="M164.4,156.8c-0.5,0-0.9-0.2-1-0.6c0,0-1.3-2.6-3.2-4.7c0,0-0.1,0-0.1,0c0,0,0,0,0,0.1
		c-0.1,3.2,0.2,9.3,3.8,13.3c0,0,0,0,0.1,0c0,0,0,0,0,0c0.6-0.4,2-1.5,3.3-3.4c1.1-1.6,2-3.5,2.5-5.7c0.5-2.1,0.8-4.5,0.7-7
		c0,0,0-0.1,0-0.1c0,0-0.1,0-0.1,0c-1.5,1.3-3.6,3.7-5,7.3C165.2,156.5,164.8,156.8,164.4,156.8"/>
	<path class="st4" d="M163.8,143.9c-0.4,0.1-0.9-0.1-1.1-0.5c0,0-1.5-2.4-3.6-4.3c0,0-0.1,0-0.1,0c0,0,0,0,0,0.1
		c0.3,3.5,1.4,9.9,4.9,12.8c0,0,0,0,0,0s0,0,0,0c0.5-0.4,1.9-1.7,3.1-3.7c1-1.7,1.6-3.7,1.9-5.9c0.3-2.2,0.3-4.5,0-7
		c0,0,0-0.1-0.1-0.1c0,0-0.1,0-0.1,0c-1.4,1.5-3.3,4-4.2,7.8C164.6,143.5,164.2,143.9,163.8,143.9"/>
	<path class="st4" d="M162.1,131.4c-0.4,0.1-0.9-0.1-1.1-0.5c0,0-1.7-2.4-3.9-4.2c0,0-0.1,0-0.1,0c0,0,0,0,0,0.1
		c0.1,1.3,0.4,2.5,0.6,3.7c0.7,2.7,2.1,6.4,5.1,8.9c0,0,0,0,0,0c0,0,0,0,0.1,0c0.5-0.5,1.8-1.7,2.8-3.8c0.9-1.8,1.4-3.8,1.7-6
		c0.2-2.2,0.1-4.5-0.3-7c0,0,0-0.1-0.1-0.1c0,0-0.1,0-0.1,0c-1.3,1.5-3.1,4.2-3.8,8C162.9,131,162.5,131.3,162.1,131.4"/>
	<path class="st4" d="M159.3,119.1c-0.4,0.1-0.9,0-1.2-0.3c0,0-2-2.2-4.5-3.7c0,0-0.1,0-0.1,0c0,0,0,0,0,0.1
		c0.3,1.2,0.6,2.4,1.1,3.6c1.5,3.7,3.6,6.5,6.4,8.2c0,0,0,0,0,0c0,0,0,0,0.1,0c0.4-0.5,1.5-2,2.3-4.2c0.6-1.9,0.9-3.9,0.8-6.1
		c-0.1-2.2-0.5-4.5-1.3-6.9c0,0,0,0-0.1-0.1c0,0-0.1,0-0.1,0c-1.1,1.7-2.5,4.5-2.7,8.4C160,118.5,159.7,118.9,159.3,119.1"/>
	<path class="st4" d="M153.8,106.8c0,0-2.3-2-4.9-3.2c0,0-0.1,0-0.1,0c0,0,0,0.1,0,0.1c0.4,1.2,0.9,2.4,1.5,3.4
		c1.8,3.5,4.3,6.1,7.2,7.5c0,0,0,0,0,0c0,0,0,0,0.1,0c0.4-0.6,1.3-2.1,1.8-4.4c0.4-1.9,0.5-4,0.2-6.2c-0.3-2.2-1-4.4-2-6.8
		c0,0,0,0-0.1,0c0,0-0.1,0-0.1,0c-0.9,1.8-2,4.8-1.8,8.6c0,0.4-0.2,0.8-0.6,1C154.6,107.2,154.2,107.1,153.8,106.8"/>
	<path class="st4" d="M142.9,92.8C142.9,92.8,142.9,92.8,142.9,92.8c0.5,1.3,1.1,2.4,1.8,3.5c2.2,3.3,4.9,5.6,8.3,6.7c0,0,0,0,0,0
		c0,0,0.1,0,0.1,0c0.3-0.6,1.1-2.2,1.3-4.6c0.2-2,0-4-0.5-6.2c-0.6-2.1-1.5-4.3-2.8-6.5c0,0,0,0-0.1,0c0,0-0.1,0-0.1,0
		c-0.7,1.9-1.4,4.9-0.8,8.8c0.1,0.4-0.1,0.9-0.5,1.1c-0.4,0.2-0.9,0.2-1.2-0.1C148.3,95.5,145.8,93.6,142.9,92.8
		C143,92.8,142.9,92.8,142.9,92.8"/>
	<path class="st4" d="M135.7,83.2C135.6,83.2,135.6,83.2,135.7,83.2c0.8,1.2,1.6,2.3,2.5,3.2c2.7,2.9,5.8,4.7,9,5.3c0,0,0,0,0,0
		c0,0,0.1,0,0.1-0.1c0.3-0.8,0.7-2.5,0.5-4.7c-0.1-2-0.6-4-1.5-6c-0.9-2-2.1-3.9-3.7-5.9c0,0-0.1,0-0.1,0c0,0-0.1,0-0.1,0.1
		c-0.3,2.1-0.5,5.3,0.6,8.7c0.1,0.4,0,0.9-0.4,1.2c-0.4,0.3-0.9,0.3-1.3,0C141.3,85.1,138.8,83.4,135.7,83.2
		C135.7,83.2,135.7,83.2,135.7,83.2"/>
	<path class="st4" d="M134.3,75.4c-0.3,0.3-0.8,0.5-1.2,0.3c0,0-2.6-1-5.4-1c-0.1,0-0.3,0-0.4,0c0,0-0.1,0-0.1,0c0,0,0,0.1,0,0.1
		c1,1.1,2.1,2,3.2,2.8c2.2,1.7,5.6,3.7,9.2,3.7c0.1,0,0.1,0,0.2,0c0,0,0.1,0,0.1-0.1c0.1-0.7,0.2-2.5-0.3-4.8
		c-0.5-1.9-1.3-3.9-2.5-5.7c-1.2-1.8-2.7-3.6-4.6-5.2c0,0-0.1,0-0.1,0c0,0,0,0,0,0.1c-0.1,2,0.2,5.1,2,8.6
		C134.7,74.5,134.6,75,134.3,75.4"/>
	<path class="st4" d="M37,233.6c0.2,0,0.4,0,0.5,0c0,0,0.1,0,0.1-0.1c0.3-5.3-3.1-10.4-5.2-12.9c0,0-0.1,0-0.1,0c0,0-0.1,0-0.1,0.1
		c-0.3,2.9,0.4,5.6,0.4,5.6c0.1,0.4-0.1,0.9-0.4,1.2c-0.4,0.3-0.9,0.3-1.2,0c-3.3-2.1-6.4-2.7-8.4-2.9c0,0-0.1,0-0.1,0
		c0,0,0,0.1,0,0.1c1.5,2,3.1,3.8,4.9,5.1c1.7,1.4,3.6,2.4,5.5,3C34.6,233.5,36.1,233.6,37,233.6"/>
	<path class="st4" d="M29.7,223.7L29.7,223.7C29.8,223.7,29.8,223.7,29.7,223.7c0.7-3.9-0.6-7.7-1.8-10.2c-0.5-1.1-1.2-2.2-1.9-3.3
		c0,0,0,0-0.1,0c0,0-0.1,0-0.1,0.1c-0.6,2.9-0.3,5.6-0.3,5.7c0.1,0.4-0.2,0.9-0.6,1.1c-0.4,0.2-0.9,0.2-1.2-0.1
		c-3.1-2.5-6.1-3.4-8.1-3.7c0,0-0.1,0-0.1,0c0,0,0,0.1,0,0.1c1.3,2.2,2.7,4.1,4.3,5.6c1.6,1.5,3.3,2.7,5.2,3.5
		C27.1,223.5,28.9,223.7,29.7,223.7"/>
	<path class="st4" d="M22.9,213.2C23,213.2,23,213.2,22.9,213.2C23,213.2,23,213.2,22.9,213.2c1.1-3.3,0.9-6.8-0.5-10.5
		c-0.4-1.2-1-2.3-1.6-3.4c0,0,0,0-0.1,0c0,0-0.1,0-0.1,0.1c-0.9,2.7-1,5.7-1,5.7c0,0.4-0.3,0.8-0.7,1c-0.4,0.2-0.9,0.1-1.2-0.2
		c-2.4-2.4-4.9-3.6-6.5-4.2c-0.4-0.1-0.7-0.3-1.1-0.4c0,0-0.1,0-0.1,0c0,0,0,0.1,0,0.1c1,2.3,2.2,4.4,3.6,6.1c1.4,1.7,3,3.1,4.7,4.1
		C20.5,212.7,22.3,213.1,22.9,213.2"/>
	<path class="st4" d="M17.4,201.8C17.4,201.8,17.5,201.8,17.4,201.8C17.5,201.8,17.5,201.8,17.4,201.8c2.6-5.7,0.9-11.3-0.4-14.1
		c0,0,0,0-0.1,0h0c0,0-0.1,0-0.1,0c-1.2,2.6-1.7,5.6-1.7,5.7c-0.1,0.4-0.4,0.8-0.8,0.9c-0.4,0.1-0.9,0-1.1-0.4c-2.1-2.7-4.4-4.2-6-5
		c-0.3-0.2-0.7-0.3-1-0.5c0,0-0.1,0-0.1,0c0,0,0,0.1,0,0.1C9.1,198.5,15,201.1,17.4,201.8"/>
	<path class="st4" d="M9.2,187.4c1.8,1.6,3.5,2.3,4.1,2.5c0,0,0,0,0,0c0,0,0.1,0,0.1,0c2-3.4,2.6-7.1,1.8-10.8
		c-0.3-1.2-0.7-2.4-1.2-3.5c0,0,0,0-0.1,0c0,0-0.1,0-0.1,0c-1.5,2.5-2.2,5.6-2.2,5.7l0.1,0l-0.1,0c-0.1,0.4-0.4,0.8-0.9,0.8
		c-0.4,0.1-0.9-0.1-1.1-0.5c-2.2-3.3-4.8-5-6.6-5.9c0,0-0.1,0-0.1,0c0,0,0,0,0,0.1c0.6,2.5,1.4,4.7,2.4,6.6
		C6.4,184.4,7.7,186.1,9.2,187.4"/>
	<path class="st4" d="M9.9,177.8C10,177.8,10,177.8,9.9,177.8c0.1,0,0.1,0,0.1,0c4.1-5.6,3.7-11,3.1-13.8c0,0,0-0.1-0.1-0.1
		c0,0-0.1,0-0.1,0c-1.9,2.3-3.1,5.2-3.1,5.2c-0.2,0.4-0.6,0.7-1,0.7h0c-0.4,0-0.8-0.3-1-0.7c-1.4-3.1-3.2-5.1-4.6-6.3
		c-0.3-0.3-0.6-0.5-0.9-0.7c0,0-0.1,0-0.1,0c0,0,0,0,0,0.1C2.7,172.5,7.8,176.5,9.9,177.8"/>
	<path class="st4" d="M8.9,165.3C8.9,165.3,8.9,165.3,8.9,165.3C8.9,165.3,9,165.3,8.9,165.3c2.1-1.9,3.4-4.4,3.9-7.4
		c0.4-2.5,0.2-4.9,0-6.4c0,0,0-0.1-0.1-0.1c0,0-0.1,0-0.1,0c-2.3,2.1-2.8,4.9-2.8,4.9c-0.1,0.5-0.5,0.9-1,0.9c-0.5,0-1-0.3-1.1-0.8
		c-1-3.2-2.7-5.4-3.9-6.7c-0.3-0.3-0.5-0.6-0.8-0.8c0,0-0.1,0-0.1,0c0,0,0,0,0,0.1C2.2,159.3,6.8,163.8,8.9,165.3"/>
	<path class="st4" d="M5.9,148.3c1.1,2,2.5,3.3,3,3.7c0,0,0,0,0,0s0,0,0.1,0c2.4-2.2,3.9-5.3,4.6-9.3c0.2-1.3,0.3-2.6,0.3-3.9
		c0,0,0-0.1,0-0.1c0,0-0.1,0-0.1,0c-2.2,2-3.4,4.5-3.4,4.5c-0.2,0.4-0.6,0.7-1.1,0.6c-0.5,0-0.8-0.4-1-0.8c-1-3.8-2.8-6.3-4.2-7.8
		c0,0-0.1,0-0.1,0c0,0,0,0-0.1,0.1c-0.3,2.5-0.3,4.9,0,7C4.3,144.6,4.9,146.6,5.9,148.3"/>
	<path class="st4" d="M7.2,135.5c1,2,2.2,3.2,2.8,3.8c0,0,0,0,0.1,0c0,0,0,0,0.1,0c2.7-2.4,4.6-5.6,5.4-9.3c0.3-1.1,0.4-2.3,0.5-3.4
		c0,0,0-0.1,0-0.1c0,0-0.1,0-0.1,0c-2.3,1.8-4,4.2-4.1,4.3c-0.3,0.4-0.7,0.5-1.1,0.5c-0.4-0.1-0.8-0.4-0.9-0.9
		c-0.8-3.8-2.5-6.4-3.8-8c0,0-0.1,0-0.1,0c0,0-0.1,0-0.1,0.1c-0.4,2.5-0.5,4.9-0.3,7C5.8,131.7,6.3,133.7,7.2,135.5"/>
	<path class="st4" d="M11.7,126.8C11.7,126.8,11.7,126.8,11.7,126.8C11.8,126.8,11.8,126.8,11.7,126.8c3.4-2.1,5.7-5,6.9-8.6
		c0.4-1.1,0.6-2.3,0.8-3.4c0,0,0-0.1,0-0.1c0,0-0.1,0-0.1,0c-2.7,1.5-4.7,3.9-4.7,3.9c-0.3,0.3-0.8,0.5-1.2,0.3
		c-0.4-0.1-0.7-0.5-0.8-1c-0.3-3.9-1.7-6.7-2.8-8.4c0,0,0,0-0.1,0c0,0-0.1,0-0.1,0.1c-0.7,2.4-1.1,4.8-1.2,7c0,2.2,0.3,4.3,0.9,6.1
		C10.1,124.9,11.3,126.3,11.7,126.8"/>
	<path class="st4" d="M14.9,114.6C14.9,114.6,14.9,114.6,14.9,114.6C15,114.6,15,114.6,14.9,114.6c3.6-1.7,6.3-4.3,7.9-7.7
		c0.5-1,0.9-2.1,1.2-3.2c0,0,0-0.1,0-0.1c0,0-0.1,0-0.1,0c-2.7,1.2-5.1,3.2-5.1,3.3c-0.3,0.3-0.8,0.4-1.2,0.2
		c-0.4-0.2-0.6-0.6-0.6-1c0.2-3.9-0.8-6.9-1.7-8.7c0,0,0,0-0.1,0h0c0,0-0.1,0-0.1,0c-1,2.3-1.7,4.6-2.1,6.8
		c-0.3,2.2-0.3,4.3,0.1,6.2C13.6,112.4,14.4,113.9,14.9,114.6"/>
	<path class="st4" d="M19.5,102.9C19.5,103,19.5,103,19.5,102.9C19.6,103,19.6,103,19.5,102.9c3.3-0.9,6.1-3,8.4-6.2
		c1-1.4,1.7-2.7,2.2-3.6c0,0,0-0.1,0-0.1c0,0,0,0-0.1,0c-3.1,0.4-5.3,2.6-5.4,2.6c-0.3,0.3-0.9,0.4-1.3,0.2
		c-0.4-0.2-0.7-0.7-0.6-1.2c0.8-3.8,0.2-6.9-0.4-8.8c0,0,0,0-0.1-0.1c0,0-0.1,0-0.1,0c-1.4,2.1-2.4,4.3-3.1,6.4
		c-0.6,2.1-0.9,4.2-0.8,6.1C18.5,100.6,19.2,102.3,19.5,102.9"/>
	<path class="st4" d="M25.9,91.8C25.9,91.8,25.9,91.8,25.9,91.8c5.3-0.9,9.5-5.7,11.4-8.5c0,0,0-0.1,0-0.1c0,0,0,0-0.1,0
		c-3.1,0.3-5.5,1.9-5.5,1.9c-0.4,0.3-0.9,0.3-1.3,0c-0.4-0.3-0.5-0.8-0.4-1.2c1.2-3.7,1-6.8,0.6-8.8c0,0,0-0.1-0.1-0.1
		c0,0-0.1,0-0.1,0C24,83,25.1,89.4,25.9,91.8C25.9,91.7,25.9,91.8,25.9,91.8"/>
	<path class="st4" d="M33.4,81.4c0.1,0,0.3,0,0.4,0c3.2,0,6.4-2,8.7-3.7c1.1-0.8,2.2-1.8,3.2-2.9c0,0,0-0.1,0-0.1c0,0,0,0-0.1,0
		c-2.8,0.1-5.5,1-5.5,1c-0.4,0.1-0.9,0-1.2-0.3c-0.3-0.3-0.3-0.8-0.1-1.2c1.8-3.5,2.1-6.6,2-8.6c0,0,0-0.1,0-0.1c0,0-0.1,0-0.1,0
		c-1.9,1.7-3.5,3.5-4.7,5.3c-1.2,1.8-2,3.8-2.5,5.7C33,78.8,33.2,80.6,33.4,81.4C33.3,81.4,33.4,81.4,33.4,81.4"/>
	<path class="st4" d="M55.5,67.3c-2.8-0.2-5.6,0.3-5.7,0.3c-0.4,0.1-0.9-0.1-1.1-0.5c-0.3-0.4-0.3-0.8,0-1.2
		c2.1-3.3,2.7-6.4,2.9-8.3c0,0,0-0.1,0-0.1c0,0-0.1,0-0.1,0c-8.4,6.1-9,12.5-8.9,14.9c0,0,0,0.1,0.1,0.1c0.2,0,0.4,0,0.6,0
		c5.1,0,9.9-3.2,12.4-5.1C55.6,67.4,55.6,67.4,55.5,67.3C55.5,67.3,55.5,67.3,55.5,67.3"/>
	<path class="st4" d="M66.3,62.1c-0.9-0.3-1.9-0.5-3-0.6c-1.6-0.2-2.8-0.2-2.8-0.2h0c-0.5,0-0.9-0.3-1-0.7c-0.2-0.4,0-0.9,0.3-1.2
		c2.9-2.5,4.3-4.8,5-6.3c0,0,0-0.1,0-0.1c0,0-0.1,0-0.1,0c-9.8,3.3-12,9.1-12.4,11.4c0,0,0,0.1,0.1,0.1c1,0.3,2.3,0.5,3.9,0.5
		c1.8,0,4-0.3,6.6-1.2c1.2-0.4,2.4-0.9,3.5-1.5C66.3,62.2,66.4,62.2,66.3,62.1C66.3,62.2,66.3,62.1,66.3,62.1"/>
	<path class="st4" d="M78.1,58.9c-2.6-1.3-5.4-1.8-5.5-1.8c-0.5-0.1-0.8-0.5-0.9-0.9c-0.1-0.5,0.2-0.9,0.6-1.1
		c3.2-1.6,4.9-3.2,5.7-4.3c0,0,0-0.1,0-0.1c0,0,0,0-0.1,0c-5,0.7-9,2.4-11.6,4.9c-1.3,1.3-2,2.5-2.3,3.4c0,0,0,0.1,0,0.1
		c2.2,1,4.5,1.3,6.6,1.3c1.4,0,2.7-0.1,3.8-0.3c1.2-0.2,2.4-0.5,3.6-0.9C78.1,59.1,78.1,59,78.1,58.9C78.1,59,78.1,58.9,78.1,58.9"
		/>
	<path class="st4" d="M85.7,55.6C85.3,55.4,85,55,85,54.5c0-0.5,0.3-0.9,0.8-1c3.2-1,5.2-2.2,6.3-3c0,0,0-0.1,0-0.1
		c0,0,0-0.1-0.1-0.1c-4.9-0.3-9.1,0.5-12.1,2.4c-1.6,1-2.5,2.1-3,2.8c0,0,0,0.1,0,0.1c3.4,2.5,7.7,3.1,11,3.1c1,0,2-0.1,2.7-0.1
		c0,0,0.1,0,0.1-0.1c0,0,0-0.1,0-0.1C88.5,56.7,85.8,55.6,85.7,55.6"/>
	<path class="st4" d="M98.6,56.5c-0.4-0.3-0.6-0.7-0.4-1.2c0.1-0.4,0.5-0.8,0.9-0.8c3.2-0.4,5.4-1.2,6.7-1.8c0,0,0,0,0-0.1
		c0,0,0-0.1-0.1-0.1c-4.7-1.3-8.9-1.3-12.2-0.1c-1.7,0.7-2.9,1.5-3.5,2.2c0,0,0,0.1,0,0.1c4.1,4.9,9.8,5.8,12.9,5.9h0
		c0,0,0.1,0,0.1,0s0-0.1,0-0.1C101.2,58.2,98.6,56.5,98.6,56.5"/>
	<path class="st4" d="M130.7,72.6C130.7,72.5,130.8,72.5,130.7,72.6c0.1-1.1,0-3.2-0.9-5.4c-1.5-3.8-4.5-6.4-8.9-7.9
		c0,0-0.1,0-0.1,0c0,0,0,0.1,0,0.1c0.6,1.8,1.7,4.3,3.5,6.6c0.3,0.4,0.3,0.9,0.1,1.3c-0.3,0.4-0.7,0.6-1.2,0.5c0,0-2.8-0.6-5.6-0.1
		c0,0-0.1,0-0.1,0.1c0,0,0,0.1,0,0.1c2.8,1.9,8,4.9,12.6,4.9C130.3,72.6,130.5,72.6,130.7,72.6"/>
	<path class="st4" d="M120.5,64.6C120.5,64.6,120.5,64.5,120.5,64.6c-2.5-2.7-5.6-3.9-9.3-3.6c-1.3,0.1-2.7,0.3-4,0.8
		c0,0,0,0-0.1,0.1c0,0,0,0.1,0,0.1c3,2.3,6.1,3.5,9.3,3.5c0.2,0,0.3,0,0.5,0C118.4,65.2,119.7,64.9,120.5,64.6
		C120.5,64.6,120.5,64.6,120.5,64.6"/>
	<path class="st4" d="M102.4,56.7C102.4,56.7,102.4,56.7,102.4,56.7c1.9,1.4,4.2,2.1,6.9,2.1c1.1,0,2.3-0.1,3.6-0.4
		c2-0.4,3.8-1,4.9-1.4c0,0,0,0,0-0.1c0,0,0-0.1,0-0.1c-1.8-1-3.6-1.7-5.5-2c-2-0.3-3.9-0.3-5.8,0.2
		C104.7,55.4,103.3,56.1,102.4,56.7C102.4,56.6,102.4,56.6,102.4,56.7"/>
	<path class="st5" d="M65.7,128.4c0.6,0.7,1.6,1.1,3.1,1.1H83c-8.6-5.3-11.7-4.3-17.7-1.6C65.5,128,65.6,128.2,65.7,128.4"/>
	<path class="st5" d="M100.5,121.8c-1.3-0.4-2.6-0.7-3.7-1.1c-4.5-1.8-8.2-4.7-8.3-4.8c-0.9-0.7-1.1-2-0.3-2.9
		c0.7-0.9,2-1.1,2.9-0.3c0,0,3.4,2.6,7.3,4.2c0.9,0.4,2,0.7,3.2,1c1.8,0.5,3.9,1,5.8,2c-0.4-2.4-0.7-4.4-1.1-6.3
		c-5.7-1.3-10.5-5.2-10.7-5.3c-0.4-0.4-0.7-0.9-0.7-1.4c-0.1-0.6,0.1-1.1,0.5-1.5c0.7-0.9,2.1-1,2.9-0.3c0,0,3.1,2.5,6.9,3.9
		c-1.5-5.7-3.6-11-6.3-16.2c-1.9-3.8-4.8-6.3-8.4-7.5c-2.7-0.9-4.8-0.7-4.8-0.7c-0.1,0-0.1,0-0.2,0c-0.1,0-6.9,0.1-11.2,5.2
		c0,0-0.1,0.1-0.1,0.1c-0.8,0.8-2.9,3.3-3.3,5.2c-0.2,1,0.1,1.9,0.7,2.2c0.3,0.2,1.4,0.6,3.4-0.8c0.5-0.4,0.8-0.6,0.9-0.7
		c0.9-0.6,2.2-0.4,2.8,0.4c0.7,0.9,0.6,2.1-0.3,2.9c-0.3,0.2-0.5,0.5-0.8,0.7c-0.9,0.7-2.6,2.4-4.6,5c-2.6,3.5-6,9.5-7.8,18.2
		c0,0.2-0.1,0.3-0.1,0.5c5.9-2.6,10.7-3.6,21.3,3.2c4.1,2.7,8.9,2.9,9.8,2.9h4.7c0,0,0.1,0,0.1,0c1.2,0.1,4.7-0.1,6.3-1.8
		c0.3-0.3,0.5-0.6,0.6-1C107.7,124.2,105.5,123.2,100.5,121.8"/>
	<path class="st6" d="M80,203.5c0.6-0.4,1.2-1.2,1.2-1.7c0-0.2-0.2-0.5-0.6-0.9c-0.5-0.4-0.9-0.6-1.4-0.6c-1,0-2.3,0.7-4.2,2
		c-1.2,0.8-3.2,2.5-3,4c0.1,0.6,0.3,0.9,0.5,1c1,0.7,2.9,0.4,3.6,0.3C76.9,206.1,78.1,204.7,80,203.5"/>
	<path class="st6" d="M87.2,206c0-0.1,0-0.5-0.6-1c0,0-0.9-0.7-3,0.5c-1.6,0.9-3.3,2-4.1,3.7c0.4,0.4,0.8,0.6,1.1,0.6
		c1.7,0.3,4.1-1.2,4.8-1.7c0.1,0,0.1-0.1,0.1-0.1C86.1,207.7,87.1,206.8,87.2,206"/>
	<path class="st6" d="M65.1,195.9c-0.1,0-0.3,0-0.4,0c-1.5,0-3.7,1.1-4.7,2.4c-0.7,0.9-0.5,1.4-0.4,1.6c0.1,0.3,0.8,0.7,2,0.9
		c0.2,0,0.5,0.1,0.8,0.1c0.5-1.7,1.6-3,2.7-4c0.3-0.3,0.6-0.5,0.9-0.8c-0.3-0.1-0.5-0.1-0.6-0.1C65.2,195.9,65.2,195.9,65.1,195.9"
		/>
	<path class="st6" d="M65.8,202.5c0,0.3,0.1,1.2,1.9,1.8c0.3,0.1,0.6,0.2,0.9,0.2c0.5-1.8,2-3.5,4.3-5.2c0.3-0.2,0.7-0.5,1-0.7
		c0-0.1,0-0.2,0-0.3c-0.1-0.3-0.5-0.6-1-0.9c-0.4-0.2-0.8-0.3-1.2-0.3c-1.2,0-2.5,0.8-4.1,2.3C66.2,200.8,65.7,201.6,65.8,202.5"/>
	<path class="st6" d="M110.6,199.1c1.1,0,1.9-0.3,2.4-0.8c0.5-0.5,0.7-1.2,0.8-1.7c-1.1-1.3-4.6-5.5-9.4-8.6c-2-1.3-4.2-2.6-6.4-3.5
		c-2.5-1-4.6-1.2-6.4-0.7c0,0-0.1,0-0.1,0c-0.6,0.1-1.4,0.6-2.3,1.3c-0.6,0.4-1.3,0.8-2,1.3c-2.1,1.2-5.1,2.1-7.4,2.2
		c-2.1,0.1-4.8,0.3-6.4-2c-1.1-1.5-1.3-2.9-0.7-4.5c0.5-1.5,2.2-2.3,4.4-3.3c0.9-0.4,1.8-0.9,2.5-1.3c1-0.7,1.6-1.2,2.4-1.8
		c0.8-0.6,1.7-1.4,3.1-2.4c0.6-0.4,1.2-0.8,1.9-1c-0.7-0.1-1.4-0.2-2.2-0.2c-3.4-0.3-5.9,0.9-9.5,3.5c-3.1,2.1-9.2,4-18.7,5.9
		c-9,1.8-21.4,3.6-36.7,5.4c0.5,1.7,1,3.4,1.5,5.1c2,6.1,4.4,11.9,7.3,17.3c5.5-2.4,18.9-8.5,29.4-14.1c2.1-2,5.2-3.1,7.6-2.8
		c0.6,0,2.5,0.3,4,1.5c1.7-0.5,3.4-0.4,4.9,0.3c1.7,0.8,2.4,2,2.8,2.8l0,0c2.2-0.7,4.1-0.3,5.8,1.2c1,0.9,1.6,1.9,1.8,3
		c2.1-0.3,3.6,0.4,4.4,1.2c1.5,1.5,1.7,3,1.6,4c-0.1,0.8-0.4,1.5-0.8,2.2c1,0.1,2,0,3-0.4c0.3-0.1,0.7-0.3,1-0.5
		c-0.5-0.9-1.2-2.2-2.5-3.7c-0.3-0.4-0.5-0.8-0.5-1.3c0-0.5,0.2-0.9,0.6-1.3c0.8-0.7,1.9-0.6,2.6,0.2c1.9,2.1,2.9,4,3.3,5.1
		c1,0.1,1.8-0.1,2.4-0.8c0.4-0.4,0.7-0.8,0.8-1.1c-0.2-0.4-0.7-1.3-1.9-2.7c-1-1.2-3.4-2.9-4.2-3.5c-0.4-0.3-0.7-0.7-0.8-1.2
		c-0.1-0.5,0-1,0.3-1.4c0.3-0.4,0.7-0.7,1.2-0.8c0.5-0.1,1,0,1.4,0.3c0.1,0.1,3.3,2.3,4.8,4.1c1.2,1.3,2,2.5,2.4,3.5
		c1.3,0,2.3-0.4,3-1.2c0.2-0.2,0.4-0.5,0.5-0.8c-1.4-1.9-4.9-6.2-9.2-8.3c-0.4-0.2-0.8-0.6-0.9-1.1c-0.2-0.5-0.1-1,0.1-1.4
		c0.2-0.4,0.6-0.8,1.1-0.9c0.5-0.2,1-0.1,1.4,0.1C105.1,192.2,109.1,197.1,110.6,199.1"/>
	<path class="st6" d="M87.2,182.1c1.2-0.8,2.3-1.5,3.5-1.8c6.1-1.6,12.4,2.4,15.7,4.6c4.6,3,8,6.7,9.7,8.7c0,0,0.1,0.2,0.3,0.3
		l0.1,0.1c0,0,0,0,0,0c0.5,0.6,1.6,1.7,3.2,2.8c7.7,5.7,19.5,10.8,24.4,12.8c3-5.6,5.6-11.6,7.6-17.9c0.5-1.5,0.9-3.1,1.4-4.6
		c-9.7-0.6-20.1-2.8-27.1-4.4c-8.1-1.9-14-3.8-14.3-3.9c-1.6-0.6-3.1-1.1-4.4-1.5c-4.4-1.6-7.3-2.6-10.6-2.5c-0.4,0-0.8,0-1.1,0
		c-0.5,0-1,0-1.4,0l-0.1,0c-3,0.1-5,0.1-6.8,1.4c-1.3,0.9-2.2,1.6-2.9,2.2c-0.8,0.7-1.6,1.3-2.7,2c-0.9,0.6-1.9,1.1-2.9,1.6
		c-0.8,0.4-2.2,1.1-2.6,1.4c-0.1,0.2-0.1,0.4,0.3,0.9c0.4,0.6,1.5,0.6,3.3,0.5c1.5-0.1,3.9-0.7,5.8-1.8
		C86.1,182.8,86.7,182.4,87.2,182.1"/>
</g>
<g>
	<path class="st2" d="M223.1,45.4h11.3l9.2,22.9l3,9h0.4l3.1-9l9.2-22.9h11.3v43h-7.4V55h-0.5l-4.3,11.9l-8.1,19.8h-6.9l-8.1-19.8
		L230.9,55h-0.4v33.4h-7.4V45.4z"/>
	<path class="st2" d="M282.9,51.8c-1.6,0-2.8-0.3-3.5-1c-0.7-0.7-1-1.8-1-3.4c0-1.5,0.3-2.7,1-3.4c0.7-0.7,1.9-1.1,3.5-1.1
		c1.6,0,2.8,0.4,3.5,1.1c0.7,0.7,1.1,1.9,1.1,3.4c0,1.5-0.4,2.6-1.1,3.3C285.7,51.5,284.5,51.8,282.9,51.8z M278.9,57h8.1v31.3h-8.1
		V57z"/>
	<path class="st2" d="M294.7,57h6.7l0.5,3.6h0.3c3-1.5,5.5-2.5,7.6-3.2c2.1-0.7,4-1,5.8-1c2.7,0,4.8,0.7,6.3,2.2
		c1.5,1.5,2.3,3.6,2.3,6.4v23.3h-8.1V67.8c0-1.8-0.3-3-1-3.8c-0.7-0.8-1.7-1.1-3.1-1.1c-1.2,0-2.7,0.2-4.3,0.7
		c-1.6,0.5-3.3,1.1-5,1.9v22.9h-8.1V57z"/>
	<path class="st2" d="M335.8,51.8c-1.6,0-2.8-0.3-3.5-1c-0.7-0.7-1-1.8-1-3.4c0-1.5,0.3-2.7,1-3.4c0.7-0.7,1.9-1.1,3.5-1.1
		c1.6,0,2.8,0.4,3.5,1.1c0.7,0.7,1.1,1.9,1.1,3.4c0,1.5-0.4,2.6-1.1,3.3C338.7,51.5,337.5,51.8,335.8,51.8z M331.8,57h8.1v31.3h-8.1
		V57z"/>
	<path class="st2" d="M358,89c-1.6,0-3.4-0.1-5.4-0.3c-2-0.2-4.1-0.6-6.4-1v-5.8c2.1,0.5,4.1,0.8,6,1.1c1.9,0.3,3.7,0.4,5.4,0.4
		c3.9,0,5.9-1.2,5.9-3.6c0-1.3-0.5-2.2-1.5-2.8c-1-0.5-2.4-1-4.3-1.3c-1.2-0.2-2.5-0.4-3.9-0.7c-1.3-0.3-2.6-0.7-3.7-1.4
		c-1.1-0.6-2-1.6-2.7-2.8c-0.7-1.2-1.1-2.8-1.1-4.9c0-3,1.1-5.4,3.4-7.1c2.3-1.7,5.4-2.6,9.4-2.6c0.7,0,1.5,0,2.2,0.1
		c0.8,0,1.5,0.1,2.4,0.2c0.8,0.1,1.8,0.2,2.8,0.3c1,0.1,2.1,0.3,3.4,0.6l-0.2,6.2c-2.1-0.5-3.9-0.8-5.5-1c-1.6-0.2-3-0.3-4.2-0.3
		c-3.9,0-5.9,1.2-5.9,3.5c0,1.4,0.6,2.3,1.7,2.8c1.2,0.5,2.8,0.9,5,1.2c1.5,0.2,2.9,0.6,4.2,1c1.3,0.4,2.4,1,3.3,1.7
		c0.9,0.7,1.6,1.6,2.1,2.7c0.5,1.1,0.8,2.4,0.8,4c0,3.1-1.1,5.6-3.4,7.3C365.6,88.2,362.3,89,358,89z"/>
	<path class="st2" d="M390.3,89c-3.4,0-6-0.8-7.7-2.4c-1.7-1.6-2.6-4-2.6-7.1V63.9h-5.9V57h6.4l1.2-8.6l6.3-0.8V57h8.5v6.8h-8.5
		v13.7c0,1.9,0.4,3.2,1.1,4c0.8,0.8,2,1.2,3.7,1.2c1.2,0,2.4-0.2,3.8-0.7v6.1c-0.9,0.2-1.9,0.4-3,0.6C392.5,89,391.4,89,390.3,89z"
		/>
	<path class="st2" d="M415.8,88.9c-10.4,0-15.6-5.3-15.6-15.9c0-5.4,1.3-9.5,3.9-12.3c2.6-2.8,6.5-4.2,11.5-4.2
		c8.8,0,13.2,4.7,13.2,14c0,0.9,0,1.8-0.1,2.5c-0.1,0.7-0.2,1.4-0.4,2.1h-20.2c0.1,1.4,0.4,2.6,0.7,3.6c0.4,1,0.9,1.8,1.6,2.4
		c0.7,0.6,1.5,1,2.5,1.3c1,0.3,2.2,0.4,3.7,0.4c1.6,0,3.4-0.1,5.4-0.4c2-0.3,3.7-0.6,5.4-1.1l0.3,5.9c-1.7,0.5-3.7,1-5.7,1.3
		C419.8,88.8,417.8,88.9,415.8,88.9z M415.4,62.3c-2.3,0-4,0.6-5.2,1.9c-1.2,1.3-1.8,3.4-2,6.2h13.5c-0.1-2.9-0.6-5-1.6-6.3
		C419.1,62.9,417.5,62.3,415.4,62.3z"/>
	<path class="st2" d="M435,57h6.7l0.5,4.5h0.2c1.8-1.2,3.6-2.3,5.3-3.2c1.8-0.9,3.5-1.5,5.1-1.9h2.6v7h-2.8c-1.7,0.2-3.3,0.6-5,1.2
		s-3.2,1.3-4.5,2v21.7H435V57z"/>
	<path class="st2" d="M464.3,51.8c-1.6,0-2.8-0.3-3.5-1c-0.7-0.7-1-1.8-1-3.4c0-1.5,0.3-2.7,1-3.4c0.7-0.7,1.9-1.1,3.5-1.1
		c1.6,0,2.8,0.4,3.5,1.1c0.7,0.7,1.1,1.9,1.1,3.4c0,1.5-0.4,2.6-1.1,3.3C467.2,51.5,466,51.8,464.3,51.8z M460.3,57h8.1v31.3h-8.1
		V57z"/>
	<path class="st2" d="M490.5,89c-5.2,0-9.1-1.4-11.9-4.2c-2.7-2.8-4.1-6.8-4.1-12.1c0-5.3,1.4-9.3,4.1-12.1
		c2.7-2.8,6.7-4.2,11.9-4.2c5.2,0,9.1,1.4,11.9,4.2c2.7,2.8,4.1,6.8,4.1,12.1c0,5.3-1.4,9.3-4.1,12.1C499.7,87.6,495.7,89,490.5,89z
		 M490.5,82.8c2.8,0,4.8-0.8,6-2.3c1.2-1.5,1.8-4.1,1.8-7.7c0-3.6-0.6-6.2-1.8-7.7c-1.2-1.5-3.2-2.3-6-2.3s-4.8,0.8-6,2.3
		c-1.2,1.5-1.8,4.1-1.8,7.7c0,3.6,0.6,6.2,1.8,7.7C485.7,82,487.7,82.8,490.5,82.8z"/>
	<path class="st2" d="M537.1,89c-4.3,0-7.6-1.3-9.8-3.8c-2.2-2.6-3.3-6.5-3.3-11.9c0-2.8,0.4-5.2,1.2-7.3c0.8-2.1,1.9-3.9,3.3-5.3
		c1.5-1.4,3.2-2.4,5.3-3.1c2.1-0.7,4.4-1,6.9-1c1.1,0,2.2,0,3.2,0.1c1,0.1,2,0.2,2.9,0.3V41.5h8.1v46.9h-7.1l-0.6-3.8h-0.4
		C544.6,87.5,541.4,89,537.1,89z M539.3,82.9c2.2,0,3.9-0.6,5.3-1.7c1.4-1.1,2.1-2.8,2.1-5.1V62.8c-0.9-0.2-1.9-0.3-2.9-0.4
		s-2.2-0.2-3.4-0.2c-1.5,0-2.7,0.2-3.8,0.5c-1.1,0.3-1.9,0.9-2.6,1.8c-0.7,0.8-1.2,1.9-1.5,3.3c-0.3,1.3-0.5,3-0.5,5
		c0,1.9,0.1,3.5,0.4,4.8c0.3,1.3,0.7,2.4,1.3,3.2c0.6,0.8,1.3,1.4,2.3,1.7C536.9,82.8,538,82.9,539.3,82.9z"/>
	<path class="st2" d="M576.7,88.9c-10.4,0-15.6-5.3-15.6-15.9c0-5.4,1.3-9.5,3.9-12.3c2.6-2.8,6.5-4.2,11.5-4.2
		c8.8,0,13.2,4.7,13.2,14c0,0.9,0,1.8-0.1,2.5c-0.1,0.7-0.2,1.4-0.4,2.1H569c0.1,1.4,0.4,2.6,0.7,3.6c0.4,1,0.9,1.8,1.6,2.4
		c0.7,0.6,1.5,1,2.5,1.3c1,0.3,2.2,0.4,3.7,0.4c1.6,0,3.4-0.1,5.4-0.4c2-0.3,3.7-0.6,5.4-1.1l0.3,5.9c-1.7,0.5-3.7,1-5.7,1.3
		C580.7,88.8,578.6,88.9,576.7,88.9z M576.2,62.3c-2.3,0-4,0.6-5.2,1.9c-1.2,1.3-1.8,3.4-2,6.2h13.5c-0.1-2.9-0.6-5-1.6-6.3
		C579.9,62.9,578.4,62.3,576.2,62.3z"/>
</g>
<g>
	<path class="st2" d="M241.1,154.1c-6.5,0-11.5-1.8-14.9-5.5c-3.4-3.7-5.1-9.2-5.1-16.5c0-7.3,1.7-12.8,5.1-16.5
		c3.4-3.7,8.4-5.6,14.9-5.6c6.5,0,11.5,1.9,14.9,5.6c3.4,3.7,5.1,9.2,5.1,16.5c0,7.2-1.7,12.7-5.1,16.4S247.6,154.1,241.1,154.1z
		 M241.1,147.4c2.1,0,3.8-0.3,5.3-0.8c1.5-0.6,2.7-1.5,3.6-2.7c0.9-1.2,1.6-2.8,2.1-4.8c0.4-1.9,0.7-4.3,0.7-7
		c0-5.5-0.9-9.4-2.8-11.8c-1.9-2.4-4.8-3.6-8.8-3.6c-2.1,0-3.8,0.3-5.3,0.9c-1.5,0.6-2.7,1.5-3.6,2.7c-0.9,1.2-1.6,2.8-2.1,4.8
		c-0.4,2-0.7,4.3-0.7,7.1c0,2.7,0.2,5.1,0.7,7c0.4,1.9,1.1,3.5,2.1,4.8c0.9,1.2,2.1,2.1,3.6,2.7C237.3,147.2,239,147.4,241.1,147.4z
		"/>
	<path class="st2" d="M281.5,154.2c-0.9,0-1.9,0-2.8-0.1c-1,0-2-0.1-3.2-0.2c-1.1-0.1-2.4-0.3-3.7-0.5c-1.3-0.2-2.8-0.5-4.4-0.8
		v-45.9h8.1v18.9c2.2-2.6,5.5-3.9,9.8-3.9c4.3,0,7.6,1.3,9.8,3.8c2.2,2.6,3.3,6.5,3.3,11.8c0,5.5-1.5,9.6-4.4,12.5
		C290.9,152.7,286.8,154.1,281.5,154.2z M281.4,148.5c1.5,0,2.9-0.2,4-0.5c1.1-0.3,2-0.9,2.7-1.8c0.7-0.8,1.2-1.9,1.5-3.3
		c0.3-1.4,0.5-3,0.5-5c0-1.9-0.1-3.5-0.4-4.8c-0.3-1.3-0.7-2.3-1.3-3.1c-0.6-0.8-1.3-1.4-2.3-1.7c-0.9-0.3-2.1-0.5-3.4-0.5
		c-2.2,0-3.9,0.5-5.3,1.6c-1.4,1.1-2.1,2.7-2.1,4.8V148c0.8,0.2,1.7,0.3,2.7,0.4C279.2,148.5,280.3,148.5,281.4,148.5z"/>
	<path class="st2" d="M304.5,122.2h6.7l0.5,4.5h0.2c1.8-1.2,3.6-2.3,5.3-3.2c1.8-0.9,3.5-1.5,5.1-1.9h2.6v7h-2.8
		c-1.7,0.2-3.3,0.6-5,1.2s-3.2,1.3-4.5,2v21.7h-8.1V122.2z"/>
	<path class="st2" d="M336.4,153.8c-2.9,0-5.1-0.8-6.6-2.3c-1.5-1.5-2.2-3.7-2.2-6.4c0-3.1,1-5.4,2.9-7.1c1.9-1.6,4.9-2.6,9-2.9
		l7.4-0.5v-1c0-1.2-0.1-2.1-0.3-2.9c-0.2-0.8-0.6-1.4-1.1-1.8c-0.5-0.5-1.2-0.8-2.1-1c-0.9-0.2-2.1-0.3-3.5-0.3
		c-1.4,0-2.9,0.1-4.6,0.3c-1.7,0.2-3.4,0.4-5.2,0.8l-0.5-5.7c4.3-0.8,8.2-1.2,11.7-1.2c4.7,0,8.1,0.9,10.4,2.6
		c2.2,1.7,3.3,4.4,3.3,8v21.2h-6.6l-0.8-3.9h-0.5C343.7,152.4,340.2,153.8,336.4,153.8z M339.7,148.1c1.2,0,2.4-0.3,3.7-0.8
		c1.3-0.5,2.4-1.1,3.5-1.9v-6.4l-4.9,0.5c-2.3,0.2-3.9,0.6-4.8,1.3c-0.9,0.7-1.4,1.8-1.4,3.4C335.7,146.8,337,148.1,339.7,148.1z"/>
	<path class="st2" d="M372.7,154.2c-1.6,0-3.4-0.1-5.4-0.3c-2-0.2-4.1-0.6-6.4-1V147c2.1,0.5,4.1,0.8,6,1.1c1.9,0.3,3.7,0.4,5.4,0.4
		c3.9,0,5.9-1.2,5.9-3.6c0-1.3-0.5-2.2-1.5-2.8c-1-0.5-2.4-1-4.3-1.3c-1.2-0.2-2.5-0.4-3.9-0.7c-1.3-0.3-2.6-0.7-3.7-1.4
		c-1.1-0.6-2-1.6-2.7-2.8c-0.7-1.2-1.1-2.8-1.1-4.9c0-3,1.1-5.4,3.4-7.1c2.3-1.7,5.4-2.6,9.4-2.6c0.7,0,1.5,0,2.2,0.1
		c0.8,0,1.5,0.1,2.4,0.2c0.8,0.1,1.8,0.2,2.8,0.3c1,0.1,2.1,0.3,3.4,0.6l-0.2,6.2c-2.1-0.5-3.9-0.8-5.5-1c-1.6-0.2-3-0.3-4.2-0.3
		c-3.9,0-5.9,1.2-5.9,3.5c0,1.4,0.6,2.3,1.7,2.8c1.2,0.5,2.8,0.9,5,1.2c1.5,0.2,2.9,0.6,4.2,1s2.4,1,3.3,1.7
		c0.9,0.7,1.6,1.6,2.1,2.7c0.5,1.1,0.8,2.4,0.8,4c0,3.1-1.1,5.6-3.4,7.3C380.4,153.3,377.1,154.2,372.7,154.2z"/>
	<path class="st2" d="M405.5,110.9c4.3-0.6,8.3-0.9,12.1-0.9c3.7,0,6.9,0.3,9.6,0.9c2.7,0.6,4.9,1.5,6.6,2.8c1.7,1.3,3,2.9,3.8,4.8
		c0.8,1.9,1.2,4.2,1.2,6.9c0,5.3-1.7,9.1-5.1,11.6c-3.4,2.5-8.7,3.7-15.8,3.7c-0.7,0-1.3,0-2,0c-0.7,0-1.4,0-2.2-0.1v13h-8.2V110.9z
		 M419.2,134.1c2.1,0,3.9-0.2,5.3-0.5c1.4-0.3,2.6-0.8,3.5-1.5c0.9-0.7,1.5-1.6,1.9-2.7c0.4-1.1,0.6-2.5,0.6-4.1
		c0-1.6-0.2-2.9-0.6-4.1c-0.4-1.1-1-2-1.9-2.7c-0.9-0.7-2-1.2-3.5-1.5c-1.4-0.3-3.2-0.5-5.2-0.5c-0.9,0-1.9,0-2.9,0.1
		c-1.1,0.1-1.9,0.2-2.6,0.2v16.9c0.6,0.1,1.4,0.2,2.5,0.3C417.3,134.1,418.3,134.1,419.2,134.1z"/>
	<path class="st2" d="M452.7,154.1c-2.8,0-5-0.7-6.4-2.2c-1.5-1.5-2.2-3.6-2.2-6.4v-23.3h8.1V143c0,1.7,0.3,3,0.9,3.7
		c0.6,0.7,1.6,1.1,3.1,1.1c1.4,0,3-0.3,4.6-0.9c1.6-0.6,3.3-1.2,4.8-1.9v-22.8h8.1v31.3h-6.8l-0.5-3.7h-0.2c-1.5,0.8-2.8,1.4-4,2
		c-1.1,0.5-2.2,1-3.2,1.3c-1,0.3-2,0.6-3,0.8C455,154,453.9,154.1,452.7,154.1z M455.6,117.7l3.9-10.9h8.2l-6.4,11.3L455.6,117.7z"
		/>
	<path class="st2" d="M495.5,154.2c-0.9,0-1.9,0-2.8-0.1c-1,0-2-0.1-3.2-0.2s-2.4-0.3-3.7-0.5c-1.3-0.2-2.8-0.5-4.4-0.8v-45.9h8.1
		v18.9c2.2-2.6,5.5-3.9,9.8-3.9c4.3,0,7.6,1.3,9.8,3.8c2.2,2.6,3.3,6.5,3.3,11.8c0,5.5-1.5,9.6-4.4,12.5
		C504.8,152.7,500.7,154.1,495.5,154.2z M495.3,148.5c1.5,0,2.9-0.2,4-0.5s2-0.9,2.7-1.8c0.7-0.8,1.2-1.9,1.5-3.3
		c0.3-1.4,0.5-3,0.5-5c0-1.9-0.1-3.5-0.4-4.8c-0.3-1.3-0.7-2.3-1.3-3.1c-0.6-0.8-1.3-1.4-2.3-1.7c-0.9-0.3-2.1-0.5-3.4-0.5
		c-2.2,0-3.9,0.5-5.3,1.6c-1.4,1.1-2.1,2.7-2.1,4.8V148c0.8,0.2,1.7,0.3,2.7,0.4C493.1,148.5,494.2,148.5,495.3,148.5z"/>
	<path class="st2" d="M518.5,106.6h8.1v46.9h-8.1V106.6z"/>
	<path class="st2" d="M538.4,117c-1.6,0-2.8-0.3-3.5-1c-0.7-0.7-1-1.8-1-3.4c0-1.5,0.3-2.7,1-3.4c0.7-0.7,1.9-1.1,3.5-1.1
		c1.6,0,2.8,0.4,3.5,1.1c0.7,0.7,1.1,1.9,1.1,3.4c0,1.5-0.4,2.6-1.1,3.3C541.2,116.6,540,117,538.4,117z M534.3,122.2h8.1v31.3h-8.1
		V122.2z"/>
	<path class="st2" d="M564.3,154c-10.4,0-15.7-5.4-15.7-16.2s5.2-16.2,15.7-16.2c1.5,0,3,0.1,4.6,0.2c1.6,0.2,3,0.4,4.2,0.7v6.4
		c-1.4-0.2-2.8-0.4-4.1-0.6c-1.4-0.1-2.7-0.2-3.9-0.2c-2.9,0-5.1,0.8-6.4,2.3s-2,3.9-2,7.3c0,3.4,0.6,5.9,1.9,7.4
		c1.3,1.5,3.4,2.3,6.4,2.3c1.6,0,3,0,4.2-0.1s2.5-0.3,3.9-0.6v6.4c-1.1,0.3-2.5,0.5-4,0.7C567.5,154,565.9,154,564.3,154z"/>
	<path class="st2" d="M586.2,153.8c-2.9,0-5.1-0.8-6.6-2.3c-1.5-1.5-2.2-3.7-2.2-6.4c0-3.1,1-5.4,2.9-7.1c1.9-1.6,4.9-2.6,9-2.9
		l7.4-0.5v-1c0-1.2-0.1-2.1-0.3-2.9c-0.2-0.8-0.6-1.4-1.1-1.8c-0.5-0.5-1.2-0.8-2.1-1c-0.9-0.2-2.1-0.3-3.5-0.3
		c-1.4,0-2.9,0.1-4.6,0.3c-1.7,0.2-3.4,0.4-5.2,0.8l-0.5-5.7c4.3-0.8,8.2-1.2,11.7-1.2c4.7,0,8.1,0.9,10.4,2.6
		c2.2,1.7,3.3,4.4,3.3,8v21.2h-6.6l-0.8-3.9h-0.5C593.6,152.4,590,153.8,586.2,153.8z M589.6,148.1c1.2,0,2.4-0.3,3.7-0.8
		c1.3-0.5,2.4-1.1,3.5-1.9v-6.4l-4.9,0.5c-2.3,0.2-3.9,0.6-4.8,1.3c-0.9,0.7-1.4,1.8-1.4,3.4C585.5,146.8,586.9,148.1,589.6,148.1z"
		/>
	<path class="st2" d="M622.6,154.2c-1.6,0-3.4-0.1-5.4-0.3s-4.1-0.6-6.4-1V147c2.1,0.5,4.1,0.8,6,1.1c1.9,0.3,3.7,0.4,5.4,0.4
		c3.9,0,5.9-1.2,5.9-3.6c0-1.3-0.5-2.2-1.5-2.8c-1-0.5-2.4-1-4.3-1.3c-1.2-0.2-2.5-0.4-3.9-0.7s-2.6-0.7-3.7-1.4
		c-1.1-0.6-2-1.6-2.7-2.8c-0.7-1.2-1.1-2.8-1.1-4.9c0-3,1.1-5.4,3.4-7.1c2.3-1.7,5.4-2.6,9.4-2.6c0.7,0,1.5,0,2.2,0.1
		c0.8,0,1.5,0.1,2.4,0.2c0.8,0.1,1.8,0.2,2.8,0.3c1,0.1,2.1,0.3,3.4,0.6l-0.2,6.2c-2.1-0.5-3.9-0.8-5.5-1c-1.6-0.2-3-0.3-4.2-0.3
		c-3.9,0-5.9,1.2-5.9,3.5c0,1.4,0.6,2.3,1.7,2.8c1.2,0.5,2.8,0.9,5,1.2c1.5,0.2,2.9,0.6,4.2,1s2.4,1,3.3,1.7
		c0.9,0.7,1.6,1.6,2.1,2.7c0.5,1.1,0.8,2.4,0.8,4c0,3.1-1.1,5.6-3.4,7.3C630.2,153.3,626.9,154.2,622.6,154.2z"/>
</g>
<g>
	<path class="st7" d="M259.9,238.1l-4.7-14.5c-0.2-0.5-0.6-0.8-1.2-0.8h-20.2c-0.5,0-1,0.3-1.2,0.8l-4.7,14.5
		c-0.2,0.5-0.6,0.8-1.2,0.8h-7.4c-0.8,0-1.4-0.8-1.2-1.6l18.1-53.9c0.2-0.5,0.6-0.8,1.1-0.8h12.9c0.5,0,1,0.3,1.1,0.8l18.1,53.9
		c0.3,0.8-0.3,1.6-1.1,1.6H261C260.5,238.9,260,238.6,259.9,238.1 M237.2,214.6h13.4c0.8,0,1.4-0.8,1.2-1.6l-6.7-20.5
		c-0.4-1.1-1.9-1.1-2.3,0L236,213C235.7,213.8,236.3,214.6,237.2,214.6"/>
	<path class="st7" d="M277.1,197.4h6c0.6,0,1.1,0.4,1.2,1l0.6,4.4h0.5c1.2-2,2.8-3.4,4.8-4.4c2-1,4.2-1.5,6.6-1.5
		c0.7,0,1.5,0,2.2,0.1c0.6,0.1,1.1,0.6,1.1,1.2v6.6c0,0.7-0.6,1.3-1.3,1.2c-0.7-0.1-1.6-0.1-2.6-0.1c-2,0-3.9,0.4-5.8,1.2
		c-1.8,0.7-3.2,1.8-4.2,3.1c-0.2,0.2-0.3,0.5-0.3,0.8v26.6c0,0.7-0.5,1.2-1.2,1.2h-7.5c-0.7,0-1.2-0.5-1.2-1.2v-39.1
		C275.9,198,276.4,197.4,277.1,197.4"/>
	<path class="st7" d="M312.2,256c-2-0.2-3.9-0.6-5.6-1.1c-0.5-0.1-0.9-0.6-0.9-1.2v-5.4c0-0.8,0.8-1.4,1.5-1.2
		c3.9,1,7.6,1.5,11.1,1.5c2.8,0,5.2-0.4,6.9-1.1c1.8-0.7,3.1-1.9,3.9-3.5c0.8-1.6,1.3-3.7,1.3-6.3v-3.3h-0.5
		c-1.3,1.5-2.9,2.7-4.7,3.5c-1.9,0.8-4,1.3-6.3,1.3c-3,0-5.7-0.7-8.1-2.1c-2.4-1.4-4.3-3.7-5.8-6.7c-1.4-3-2.2-6.8-2.2-11.4
		c0-7.3,1.9-12.8,5.7-16.6c3.8-3.8,9.5-5.6,17-5.7c2.5,0,5.1,0.2,7.7,0.6c2.3,0.3,4.4,0.8,6.3,1.3c0.5,0.2,0.9,0.6,0.9,1.2V236
		c0,4.8-0.8,8.7-2.3,11.7c-1.6,3-3.9,5.2-7.1,6.6c-3.1,1.4-7.1,2.1-12,2.1C316.7,256.4,314.5,256.3,312.2,256 M326.8,230.3
		c1.3-0.5,2.3-1.2,3.2-2.1c0.2-0.2,0.3-0.5,0.3-0.9v-21.1c0-0.6-0.4-1.1-1-1.2c-1.6-0.3-3.2-0.4-4.7-0.4c-3.9,0-6.9,1.1-8.8,3.3
		c-2,2.2-3,5.7-3,10.4c0,4.7,0.8,8.1,2.5,10c1.6,1.9,4,2.9,7.1,2.9C323.9,231.1,325.4,230.8,326.8,230.3"/>
	<path class="st7" d="M382.7,221.2h-23.2c-0.7,0-1.3,0.6-1.2,1.4c0.2,2.1,0.7,3.7,1.4,5c0.9,1.6,2.3,2.7,4.1,3.4
		c1.9,0.7,4.3,1.1,7.4,1.1c2.7,0,5.6-0.4,8.9-1.1c0.8-0.2,1.5,0.4,1.5,1.2v5.1c0,0.6-0.4,1.1-0.9,1.2c-3.7,0.8-7.3,1.3-10.8,1.3
		c-4.9,0-9-0.8-12.2-2.2c-3.2-1.5-5.6-3.8-7.1-7c-1.6-3.2-2.4-7.3-2.4-12.3c0-4.6,0.7-8.6,2.2-11.8c1.4-3.2,3.5-5.6,6.3-7.2
		c2.7-1.6,6.1-2.4,9.9-2.4c5.7,0,10,1.8,12.9,5.5c2.9,3.6,4.4,9.1,4.4,16.2v1.5C383.9,220.6,383.4,221.2,382.7,221.2 M360.4,206
		c-1.3,1.6-2,4.3-2.2,7.9c0,0.7,0.5,1.3,1.2,1.3h13.9c0.7,0,1.3-0.6,1.2-1.3c-0.2-3.6-0.9-6.3-2.1-7.9c-1.3-1.8-3.3-2.7-6-2.7
		C363.9,203.3,361.8,204.2,360.4,206"/>
	<path class="st7" d="M392.6,197.4h6c0.6,0,1.1,0.4,1.2,1l0.5,3.4h0.5c1.6-1.6,3.4-2.9,5.6-3.7c2.1-0.9,4.4-1.3,6.9-1.3
		c4.3,0,7.7,1.3,10.2,3.8c2.5,2.5,3.7,6.5,3.7,12v25.2c0,0.7-0.5,1.2-1.2,1.2h-7.5c-0.7,0-1.2-0.5-1.2-1.2v-24.6
		c0-2.8-0.6-4.7-1.8-5.9c-1.2-1.2-2.9-1.8-5.1-1.8c-1.7,0-3.3,0.3-4.9,1c-1.5,0.6-2.7,1.6-3.8,2.8c-0.2,0.2-0.3,0.5-0.3,0.8v27.7
		c0,0.7-0.5,1.2-1.2,1.2h-7.5c-0.7,0-1.2-0.5-1.2-1.2v-39.1C391.4,198,391.9,197.4,392.6,197.4"/>
	<path class="st7" d="M461.5,232.3v5.6c0,0.6-0.4,1.1-1,1.2c-2.1,0.4-4.2,0.6-6.2,0.6c-9.8,0-14.8-5-14.8-14.9v-18.2
		c0-0.7-0.5-1.2-1.2-1.2h-4.7c-0.7,0-1.2-0.5-1.2-1.2v-5.5c0-0.7,0.5-1.2,1.2-1.2h4.9c0.6,0,1.1-0.5,1.2-1.1l1.5-12.7
		c0.1-0.6,0.6-1.1,1.2-1.1h5.9c0.7,0,1.2,0.5,1.2,1.2v12.4c0,0.7,0.5,1.2,1.2,1.2h9.2c0.7,0,1.2,0.5,1.2,1.2v5.5
		c0,0.7-0.5,1.2-1.2,1.2h-9.2c-0.7,0-1.2,0.5-1.2,1.2v16.6c0,2,0.3,3.6,0.8,4.8c0.5,1.2,1.3,2,2.4,2.6c1.1,0.5,2.5,0.8,4.2,0.8
		c0.9,0,2-0.1,3.2-0.3C460.8,231,461.5,231.6,461.5,232.3"/>
	<path class="st7" d="M468.8,188.9c-1.1-0.9-1.6-2.3-1.6-4c0-1.8,0.5-3.1,1.6-4c1.1-0.9,2.6-1.4,4.7-1.4c2.1,0,3.7,0.5,4.7,1.4
		c1.1,0.9,1.6,2.3,1.6,4c0,1.8-0.5,3.1-1.6,4c-1.1,0.9-2.6,1.4-4.7,1.4C471.4,190.3,469.8,189.8,468.8,188.9 M468.5,237.7v-39.1
		c0-0.7,0.5-1.2,1.2-1.2h7.6c0.7,0,1.2,0.5,1.2,1.2v39.1c0,0.7-0.5,1.2-1.2,1.2h-7.6C469,238.9,468.5,238.4,468.5,237.7"/>
	<path class="st7" d="M487.9,197.4h6c0.6,0,1.1,0.4,1.2,1l0.5,3.4h0.5c1.6-1.6,3.4-2.9,5.6-3.7c2.1-0.9,4.4-1.3,6.9-1.3
		c4.3,0,7.7,1.3,10.2,3.8c2.5,2.5,3.7,6.5,3.7,12v25.2c0,0.7-0.5,1.2-1.2,1.2h-7.5c-0.7,0-1.2-0.5-1.2-1.2v-24.6
		c0-2.8-0.6-4.7-1.8-5.9c-1.2-1.2-2.9-1.8-5.1-1.8c-1.7,0-3.3,0.3-4.9,1c-1.5,0.6-2.7,1.6-3.8,2.8c-0.2,0.2-0.3,0.5-0.3,0.8v27.7
		c0,0.7-0.5,1.2-1.2,1.2h-7.5c-0.7,0-1.2-0.5-1.2-1.2v-39.1C486.6,198,487.2,197.4,487.9,197.4"/>
	<path class="st7" d="M556.1,198.4c2.6,1.1,4.6,2.8,5.8,5.2c1.3,2.4,1.9,5.7,1.9,9.8v24.4c0,0.7-0.5,1.2-1.2,1.2h-6
		c-0.6,0-1.1-0.4-1.2-1l-0.5-3.3h-0.5c-1.2,1.6-2.8,2.9-4.8,3.7c-2,0.9-4.1,1.3-6.5,1.3c-2.7,0-5.1-0.5-7-1.4c-2-1-3.5-2.3-4.5-4.1
		c-1.1-1.8-1.6-3.8-1.6-6.2c0-3.9,1.3-6.8,4-8.9c2.6-2.1,6.8-3.4,12.5-3.8l7.8-0.7v-1.6c0-2.1-0.3-3.8-1-5c-0.7-1.2-1.7-2.1-3.2-2.6
		c-1.4-0.5-3.4-0.8-5.8-0.8c-1.7,0-3.5,0.1-5.5,0.4c-1.4,0.2-2.8,0.5-4.2,0.9c-0.8,0.2-1.5-0.4-1.5-1.2v-5.1c0-0.5,0.3-1,0.9-1.2
		c1.6-0.5,3.5-0.8,5.4-1.1c2.3-0.3,4.5-0.5,6.6-0.5C550,196.8,553.5,197.3,556.1,198.4 M550.4,231.7c1.2-0.5,2.4-1.3,3.4-2.3
		c0.2-0.2,0.3-0.6,0.3-0.9v-7c0-0.7-0.6-1.3-1.3-1.2l-5.5,0.5c-2.6,0.3-4.5,0.9-5.7,1.9c-1.2,1-1.8,2.4-1.8,4.2
		c0,1.8,0.5,3.2,1.6,4.2c1.1,1,2.7,1.4,4.7,1.4C547.6,232.6,549,232.3,550.4,231.7"/>
</g>
</svg>
